<svg width="34" height="66" viewBox="0 0 34 66" fill="none" xmlns="http://www.w3.org/2000/svg">
<g clip-path="url(#clip0_129_133)">
<path d="M17 34C26.3888 34 34 26.3888 34 17C34 7.61116 26.3888 0 17 0C7.61116 0 0 7.61116 0 17C0 26.3888 7.61116 34 17 34Z" fill="#F8D24E"/>
<path d="M21.7235 16.9804H18.9502V27.2001H14.7484V16.9804H12.75V13.3888H14.7484V11.0646C14.7484 9.40261 15.5333 6.80005 18.9876 6.80005L22.1 6.81315V10.2994H19.8417C19.4713 10.2994 18.9505 10.4856 18.9505 11.2784V13.3922H22.0906L21.7235 16.9804Z" fill="#84A178"/>
</g>
<g clip-path="url(#clip1_129_133)">
<path d="M17 66C25.8366 66 33 58.8366 33 50C33 41.1634 25.8366 34 17 34C8.16344 34 1 41.1634 1 50C1 58.8366 8.16344 66 17 66Z" fill="#F8D24E"/>
<path d="M21.4456 49.9815H18.8355V59.6H14.8808V49.9815H13V46.6012H14.8808V44.4138C14.8808 42.8495 15.6196 40.4 18.8707 40.4L21.8 40.4124V43.6935H19.6746C19.3259 43.6935 18.8357 43.8687 18.8357 44.6149V46.6044H21.7911L21.4456 49.9815Z" fill="#FCFCFC"/>
</g>
<defs>
<clipPath id="clip0_129_133">
<rect width="34" height="34" fill="white"/>
</clipPath>
<clipPath id="clip1_129_133">
<rect width="32" height="32" fill="white" transform="translate(1 34)"/>
</clipPath>
</defs>
</svg>
