<svg width="34" height="66" viewBox="0 0 34 66" fill="none" xmlns="http://www.w3.org/2000/svg">
<circle cx="17" cy="50" r="16" fill="#F8D24E"/>
<path d="M17.0016 40.5881C11.8321 40.5881 7.58984 44.8304 7.58984 49.9999C7.58984 54.4112 10.6853 58.4184 14.7957 59.4117V56.2979C14.3884 56.387 14.0136 56.3896 13.599 56.2674C13.0428 56.1033 12.5908 55.7328 12.2554 55.1678C12.0415 54.807 11.6625 54.4158 11.2672 54.4446L11.1702 53.3459C12.0252 53.2727 12.7648 53.8668 13.2038 54.6044C13.3988 54.9324 13.6233 55.1247 13.9114 55.2097C14.1898 55.2917 14.4888 55.2524 14.8372 55.1293C14.9247 54.4318 15.2442 54.1707 15.4856 53.803V53.8025C13.0342 53.4368 12.0572 52.1363 11.6694 51.1097C11.1556 49.7467 11.4313 48.0439 12.34 46.9678C12.3576 46.9468 12.3895 46.892 12.3772 46.8536C11.9605 45.5952 12.4682 44.5541 12.4869 44.4437C12.9677 44.5859 13.0458 44.3007 14.5754 45.23L14.8398 45.3888C14.9504 45.4547 14.9156 45.4171 15.0262 45.4088C15.6649 45.2353 16.3381 45.1395 17.0015 45.1309C17.6698 45.1395 18.3388 45.2353 19.0038 45.4158L19.0894 45.4244C19.082 45.4233 19.1127 45.419 19.1643 45.3882C21.075 44.2309 21.0064 44.6091 21.5188 44.4425C21.5373 44.5531 22.0382 45.6111 21.6261 46.8536C21.5705 47.0248 23.2826 48.5926 22.3336 51.1093C21.9459 52.1363 20.969 53.4368 18.5176 53.8025V53.803C18.8318 54.282 19.2094 54.5367 19.2073 55.5248V59.4117C23.318 58.4184 26.4132 54.4112 26.4132 49.9999C26.4134 44.8304 22.1711 40.5881 17.0016 40.5881V40.5881Z" fill="#FCFCFC"/>
<circle cx="17" cy="17" r="17" fill="#F8D24E"/>
<path d="M17 7C11.5074 7 7 11.5074 7 17C7 21.687 10.2889 25.9447 14.6562 27V23.6916C14.2235 23.7863 13.8253 23.7891 13.3847 23.6592C12.7938 23.4848 12.3136 23.0912 11.9571 22.4909C11.7299 22.1076 11.3272 21.6919 10.9072 21.7224L10.8042 20.5551C11.7125 20.4773 12.4984 21.1086 12.9648 21.8923C13.172 22.2408 13.4105 22.4451 13.7166 22.5354C14.0125 22.6226 14.3302 22.5807 14.7003 22.45C14.7933 21.7089 15.1328 21.4315 15.3893 21.0408V21.0402C12.7846 20.6517 11.7466 19.2699 11.3346 18.1792C10.7886 16.731 11.0816 14.9218 12.047 13.7784C12.0658 13.7561 12.0996 13.6978 12.0865 13.6571C11.6439 12.32 12.1833 11.2139 12.2031 11.0965C12.714 11.2476 12.797 10.9445 14.4222 11.9319L14.7031 12.1007C14.8206 12.1707 14.7837 12.1308 14.9012 12.1219C15.5797 11.9376 16.295 11.8358 16.9998 11.8267C17.71 11.8358 18.4207 11.9376 19.1274 12.1294L19.2183 12.1385C19.2104 12.1373 19.243 12.1328 19.2978 12.1001C21.328 10.8704 21.2551 11.2723 21.7995 11.0953C21.8192 11.2128 22.3514 12.3369 21.9135 13.6571C21.8544 13.839 23.6736 15.5048 22.6653 18.1787C22.2533 19.2699 21.2154 20.6517 18.6107 21.0402V21.0408C18.9446 21.5497 19.3457 21.8204 19.3436 22.8702V27C23.7111 25.9447 26.9998 21.687 26.9998 17C27 11.5074 22.4926 7 17 7V7Z" fill="#84A178"/>
</svg>
