<svg width="34" height="66" viewBox="0 0 34 66" fill="none" xmlns="http://www.w3.org/2000/svg">
<g clip-path="url(#clip0_129_132)">
<circle cx="17" cy="17" r="17" fill="#F8D24E"/>
<path d="M13.6728 19.5238L13.3353 23.9538C13.8181 23.9538 14.0272 23.7602 14.278 23.5278L16.5416 21.5088L21.232 24.7146C22.0922 25.162 22.6983 24.9264 22.9303 23.976L26.0091 10.5116L26.01 10.5108C26.2828 9.32401 25.5501 8.85991 24.712 9.15106L6.61504 15.6175C5.37996 16.0649 5.39866 16.7075 6.40509 16.9987L11.0317 18.3418L21.7786 12.0658C22.2843 11.7532 22.7442 11.9261 22.3659 12.2387L13.6728 19.5238Z" fill="#84A178"/>
</g>
<g clip-path="url(#clip1_129_132)">
<circle cx="17" cy="50" r="16" fill="#F8D24E"/>
<path d="M13.866 52.3753L13.5483 56.5446C14.0028 56.5446 14.1996 56.3624 14.4356 56.1437L16.566 54.2434L20.9805 57.2607C21.7901 57.6818 22.3606 57.46 22.579 56.5655L25.4766 43.8932L25.4774 43.8924C25.7342 42.7754 25.0446 42.3386 24.2558 42.6127L7.22339 48.6987C6.06097 49.1198 6.07857 49.7246 7.02579 49.9986L11.3803 51.2627L21.4949 45.3559C21.9709 45.0617 22.4038 45.2245 22.0477 45.5187L13.866 52.3753Z" fill="white"/>
</g>
<defs>
<clipPath id="clip0_129_132">
<rect width="34" height="34" fill="white"/>
</clipPath>
<clipPath id="clip1_129_132">
<rect width="32" height="32" fill="white" transform="translate(1 34)"/>
</clipPath>
</defs>
</svg>
