<svg width="50" height="50" viewBox="0 0 50 50" fill="none" xmlns="http://www.w3.org/2000/svg">
<rect width="50" height="50" rx="25" fill="#F8D24E"/>
<path d="M22.9495 7.61517C18.4785 8.27821 14.7969 10.7606 13.4423 14.0111C13.0102 15.038 12.8938 15.6687 12.8938 16.9059C12.9021 17.8196 12.9354 18.1592 13.0766 18.6524C13.3675 19.6227 13.5753 20.116 14.0074 20.8113L14.4063 21.4582L13.9576 22.0081C10.409 26.423 10.0184 32.6329 12.9769 37.5249C14.0822 39.3604 15.8856 41.1635 17.6474 42.2147L18.171 42.522L25.3346 42.4654L32.5066 42.4007L32.8473 42.2147C34.0357 41.5436 35.7144 40.0477 36.6535 38.8348C38.0663 36.9912 38.9888 34.8404 39.3794 32.5116C39.5123 31.6788 39.5123 29.2126 39.3711 28.4283C38.9472 26.0106 38.0414 23.9406 36.612 22.1051C36.3377 21.7574 36.1217 21.4663 36.1217 21.442C36.1217 21.4259 36.2712 21.1752 36.4458 20.8922C36.853 20.2453 37.2186 19.4125 37.4181 18.6848C37.6425 17.8762 37.6425 15.8547 37.4181 15.0461C36.6203 12.1756 34.2269 9.78219 30.8445 8.46419C29.8971 8.09224 28.2765 7.69603 27.2294 7.56665C26.2571 7.45345 23.8554 7.47771 22.9495 7.61517ZM28.0106 8.93317C32.4484 9.79836 35.6978 12.5152 36.2962 15.8628C36.4291 16.6148 36.346 17.8923 36.1217 18.6039C35.8973 19.2993 35.4818 20.116 34.9914 20.8113C34.792 21.0944 34.6258 21.4178 34.6258 21.5229C34.6258 21.628 34.8003 21.9029 35.0496 22.1779C37.1272 24.4823 38.2242 27.369 38.2242 30.4902C38.2159 34.0399 36.853 37.1529 34.2269 39.5949C33.7781 40.0153 33.1382 40.5409 32.7975 40.7673L32.1742 41.1878L25.3014 41.2121L18.4369 41.2444L17.905 40.9048C15.977 39.6515 14.2401 37.5815 13.2761 35.3821C12.0628 32.6006 11.9381 29.3743 12.9271 26.4796C13.4506 24.9756 14.1487 23.7465 15.2124 22.4528C15.6446 21.9353 15.844 21.628 15.844 21.4825C15.844 21.3612 15.628 20.965 15.3454 20.5526C14.3481 19.1052 13.9409 17.4961 14.1819 15.976C14.4313 14.4397 15.1293 13.1783 16.4175 11.925C18.0962 10.2997 20.4397 9.22426 23.1905 8.81997C24.3291 8.65017 26.8471 8.71485 28.0106 8.93317Z" fill="black"/>
<path d="M23.3233 10.3563C19.916 10.9143 17.2484 12.8064 16.3758 15.2887C16.1763 15.8467 16.1431 16.065 16.1431 16.8655C16.1431 17.666 16.1763 17.8843 16.3758 18.4422C16.5004 18.798 16.7331 19.2913 16.891 19.5419C17.3232 20.2373 17.5143 20.2616 18.3703 19.7441C19.6501 18.9597 21.1211 18.3856 22.6502 18.0703C23.6807 17.8601 25.6586 17.7792 26.7805 17.9086C28.534 18.1107 30.4371 18.7414 31.9579 19.639C32.3901 19.8896 32.8306 20.0999 32.9386 20.0999C33.5702 20.0999 34.3763 18.2805 34.3763 16.8655C34.3763 13.7201 31.3679 11.0275 27.1046 10.3563C26.1988 10.2108 24.1959 10.2108 23.3233 10.3563ZM27.437 11.6501C28.8664 11.9574 30.1795 12.5395 31.1685 13.3077C32.4981 14.3346 33.2128 15.7658 33.0965 17.1485C33.0549 17.6983 32.8472 18.4422 32.7225 18.5231C32.6893 18.5393 32.2239 18.3452 31.692 18.0865C30.5867 17.5528 29.3318 17.1242 28.0603 16.8493C27.2874 16.6876 26.9633 16.6633 25.2348 16.6714C23.5311 16.6714 23.1737 16.6957 22.4341 16.8493C21.1543 17.1242 20.157 17.4639 18.9271 18.046C17.6888 18.6363 17.7553 18.6444 17.5309 17.9167C17.2401 16.9706 17.4229 15.7173 17.988 14.7712C18.2872 14.2699 19.1099 13.4371 19.7083 13.0247C20.8468 12.2404 21.8441 11.8846 23.9882 11.4965C24.4286 11.4156 26.8719 11.5288 27.437 11.6501Z" fill="black"/>
<path d="M26.0827 22.0808C25.85 22.3719 25.85 22.6468 26.091 22.8813C26.2489 23.035 26.4068 23.0754 26.9802 23.1158C28.0938 23.1967 29.1576 23.5201 30.1133 24.07C30.7947 24.4743 31.8335 25.4526 32.2989 26.1561C32.9887 27.1669 33.4624 28.6142 33.4624 29.6816C33.4624 30.0535 33.4956 30.1667 33.6702 30.3284C33.9361 30.5953 34.2851 30.5953 34.5428 30.3284C34.7256 30.1425 34.7339 30.0939 34.684 29.3015C34.4513 25.388 31.1022 22.1213 27.0966 21.9029L26.2655 21.8544L26.0827 22.0808Z" fill="black"/>
</svg>
