<svg width="152" height="126" viewBox="0 0 152 126" fill="none" xmlns="http://www.w3.org/2000/svg">
<rect width="152" height="42" rx="10" fill="#F8D24E"/>
<path d="M35.9896 26V16.2H40.5816C41.7576 16.2 42.6536 16.4333 43.2696 16.9C43.8856 17.3573 44.1936 17.9733 44.1936 18.748C44.1936 19.2707 44.0723 19.7187 43.8296 20.092C43.587 20.456 43.2603 20.7407 42.8496 20.946C42.4483 21.142 42.0096 21.24 41.5336 21.24L41.7856 20.736C42.3363 20.736 42.831 20.8387 43.2696 21.044C43.7083 21.24 44.0536 21.5293 44.3056 21.912C44.567 22.2947 44.6976 22.7707 44.6976 23.34C44.6976 24.18 44.3756 24.8333 43.7316 25.3C43.0876 25.7667 42.131 26 40.8616 26H35.9896ZM37.8096 24.572H40.7496C41.431 24.572 41.9536 24.46 42.3176 24.236C42.6816 24.012 42.8636 23.6527 42.8636 23.158C42.8636 22.6727 42.6816 22.318 42.3176 22.094C41.9536 21.8607 41.431 21.744 40.7496 21.744H37.6696V20.33H40.3856C41.0203 20.33 41.5056 20.218 41.8416 19.994C42.187 19.77 42.3596 19.434 42.3596 18.986C42.3596 18.5287 42.187 18.188 41.8416 17.964C41.5056 17.74 41.0203 17.628 40.3856 17.628H37.8096V24.572ZM49.636 26.098C49.0014 26.098 48.4414 25.9813 47.956 25.748C47.4707 25.5053 47.0927 25.1413 46.822 24.656C46.5514 24.1613 46.416 23.5407 46.416 22.794V18.524H48.166V22.556C48.166 23.228 48.3154 23.732 48.614 24.068C48.922 24.3947 49.356 24.558 49.916 24.558C50.3267 24.558 50.6814 24.474 50.98 24.306C51.288 24.138 51.526 23.886 51.694 23.55C51.8714 23.214 51.96 22.7987 51.96 22.304V18.524H53.71V26H52.044V23.984L52.338 24.6C52.086 25.0853 51.7174 25.4587 51.232 25.72C50.7467 25.972 50.2147 26.098 49.636 26.098ZM56.6173 28.814C56.2533 28.814 55.8893 28.7533 55.5253 28.632C55.1613 28.5107 54.858 28.3427 54.6153 28.128L55.3153 26.84C55.4927 26.9987 55.6933 27.1247 55.9173 27.218C56.1413 27.3113 56.37 27.358 56.6033 27.358C56.9207 27.358 57.1773 27.2787 57.3733 27.12C57.5693 26.9613 57.7513 26.6953 57.9193 26.322L58.3533 25.342L58.4933 25.132L61.3213 18.524H63.0013L59.5013 26.602C59.268 27.162 59.0067 27.6053 58.7173 27.932C58.4373 28.2587 58.12 28.4873 57.7653 28.618C57.42 28.7487 57.0373 28.814 56.6173 28.814ZM58.1573 26.266L54.7833 18.524H56.6033L59.3473 24.978L58.1573 26.266ZM72.2062 18.44C72.8035 18.44 73.3355 18.5567 73.8022 18.79C74.2782 19.0233 74.6515 19.3827 74.9222 19.868C75.1929 20.344 75.3282 20.96 75.3282 21.716V26H73.5782V21.94C73.5782 21.2773 73.4195 20.7827 73.1022 20.456C72.7942 20.1293 72.3602 19.966 71.8002 19.966C71.3895 19.966 71.0255 20.05 70.7082 20.218C70.3909 20.386 70.1435 20.638 69.9662 20.974C69.7982 21.3007 69.7142 21.716 69.7142 22.22V26H67.9642V18.524H69.6302V20.54L69.3362 19.924C69.5975 19.448 69.9755 19.084 70.4702 18.832C70.9742 18.5707 71.5529 18.44 72.2062 18.44ZM80.9219 26.098C80.1565 26.098 79.4752 25.9347 78.8779 25.608C78.2805 25.272 77.8092 24.8147 77.4639 24.236C77.1185 23.6573 76.9459 22.9993 76.9459 22.262C76.9459 21.5153 77.1185 20.8573 77.4639 20.288C77.8092 19.7093 78.2805 19.2567 78.8779 18.93C79.4752 18.6033 80.1565 18.44 80.9219 18.44C81.6965 18.44 82.3825 18.6033 82.9799 18.93C83.5865 19.2567 84.0579 19.7047 84.3939 20.274C84.7392 20.8433 84.9119 21.506 84.9119 22.262C84.9119 22.9993 84.7392 23.6573 84.3939 24.236C84.0579 24.8147 83.5865 25.272 82.9799 25.608C82.3825 25.9347 81.6965 26.098 80.9219 26.098ZM80.9219 24.6C81.3512 24.6 81.7339 24.5067 82.0699 24.32C82.4059 24.1333 82.6672 23.8627 82.8539 23.508C83.0499 23.1533 83.1479 22.738 83.1479 22.262C83.1479 21.7767 83.0499 21.3613 82.8539 21.016C82.6672 20.6613 82.4059 20.3907 82.0699 20.204C81.7339 20.0173 81.3559 19.924 80.9359 19.924C80.5065 19.924 80.1239 20.0173 79.7879 20.204C79.4612 20.3907 79.1999 20.6613 79.0039 21.016C78.8079 21.3613 78.7099 21.7767 78.7099 22.262C78.7099 22.738 78.8079 23.1533 79.0039 23.508C79.1999 23.8627 79.4612 24.1333 79.7879 24.32C80.1239 24.5067 80.5019 24.6 80.9219 24.6ZM88.0322 26L85.2882 18.524H86.9402L89.2922 25.118H88.5082L90.9722 18.524H92.4422L94.8362 25.118H94.0662L96.4882 18.524H98.0422L95.2842 26H93.6042L91.4202 20.162H91.9382L89.7122 26H88.0322Z" fill="black"/>
<path d="M110 17L114.95 21L110 25" stroke="black" stroke-width="2" stroke-linecap="round" stroke-linejoin="round"/>
<rect y="42" width="152" height="42" rx="10" fill="#0A8817"/>
<path d="M35.9896 68V58.2H40.5816C41.7576 58.2 42.6536 58.4333 43.2696 58.9C43.8856 59.3573 44.1936 59.9733 44.1936 60.748C44.1936 61.2707 44.0723 61.7187 43.8296 62.092C43.587 62.456 43.2603 62.7407 42.8496 62.946C42.4483 63.142 42.0096 63.24 41.5336 63.24L41.7856 62.736C42.3363 62.736 42.831 62.8387 43.2696 63.044C43.7083 63.24 44.0536 63.5293 44.3056 63.912C44.567 64.2947 44.6976 64.7707 44.6976 65.34C44.6976 66.18 44.3756 66.8333 43.7316 67.3C43.0876 67.7667 42.131 68 40.8616 68H35.9896ZM37.8096 66.572H40.7496C41.431 66.572 41.9536 66.46 42.3176 66.236C42.6816 66.012 42.8636 65.6527 42.8636 65.158C42.8636 64.6727 42.6816 64.318 42.3176 64.094C41.9536 63.8607 41.431 63.744 40.7496 63.744H37.6696V62.33H40.3856C41.0203 62.33 41.5056 62.218 41.8416 61.994C42.187 61.77 42.3596 61.434 42.3596 60.986C42.3596 60.5287 42.187 60.188 41.8416 59.964C41.5056 59.74 41.0203 59.628 40.3856 59.628H37.8096V66.572ZM49.636 68.098C49.0014 68.098 48.4414 67.9813 47.956 67.748C47.4707 67.5053 47.0927 67.1413 46.822 66.656C46.5514 66.1613 46.416 65.5407 46.416 64.794V60.524H48.166V64.556C48.166 65.228 48.3154 65.732 48.614 66.068C48.922 66.3947 49.356 66.558 49.916 66.558C50.3267 66.558 50.6814 66.474 50.98 66.306C51.288 66.138 51.526 65.886 51.694 65.55C51.8714 65.214 51.96 64.7987 51.96 64.304V60.524H53.71V68H52.044V65.984L52.338 66.6C52.086 67.0853 51.7174 67.4587 51.232 67.72C50.7467 67.972 50.2147 68.098 49.636 68.098ZM56.6173 70.814C56.2533 70.814 55.8893 70.7533 55.5253 70.632C55.1613 70.5107 54.858 70.3427 54.6153 70.128L55.3153 68.84C55.4927 68.9987 55.6933 69.1247 55.9173 69.218C56.1413 69.3113 56.37 69.358 56.6033 69.358C56.9207 69.358 57.1773 69.2787 57.3733 69.12C57.5693 68.9613 57.7513 68.6953 57.9193 68.322L58.3533 67.342L58.4933 67.132L61.3213 60.524H63.0013L59.5013 68.602C59.268 69.162 59.0067 69.6053 58.7173 69.932C58.4373 70.2587 58.12 70.4873 57.7653 70.618C57.42 70.7487 57.0373 70.814 56.6173 70.814ZM58.1573 68.266L54.7833 60.524H56.6033L59.3473 66.978L58.1573 68.266ZM72.2062 60.44C72.8035 60.44 73.3355 60.5567 73.8022 60.79C74.2782 61.0233 74.6515 61.3827 74.9222 61.868C75.1929 62.344 75.3282 62.96 75.3282 63.716V68H73.5782V63.94C73.5782 63.2773 73.4195 62.7827 73.1022 62.456C72.7942 62.1293 72.3602 61.966 71.8002 61.966C71.3895 61.966 71.0255 62.05 70.7082 62.218C70.3909 62.386 70.1435 62.638 69.9662 62.974C69.7982 63.3007 69.7142 63.716 69.7142 64.22V68H67.9642V60.524H69.6302V62.54L69.3362 61.924C69.5975 61.448 69.9755 61.084 70.4702 60.832C70.9742 60.5707 71.5529 60.44 72.2062 60.44ZM80.9219 68.098C80.1565 68.098 79.4752 67.9347 78.8779 67.608C78.2805 67.272 77.8092 66.8147 77.4639 66.236C77.1185 65.6573 76.9459 64.9993 76.9459 64.262C76.9459 63.5153 77.1185 62.8573 77.4639 62.288C77.8092 61.7093 78.2805 61.2567 78.8779 60.93C79.4752 60.6033 80.1565 60.44 80.9219 60.44C81.6965 60.44 82.3825 60.6033 82.9799 60.93C83.5865 61.2567 84.0579 61.7047 84.3939 62.274C84.7392 62.8433 84.9119 63.506 84.9119 64.262C84.9119 64.9993 84.7392 65.6573 84.3939 66.236C84.0579 66.8147 83.5865 67.272 82.9799 67.608C82.3825 67.9347 81.6965 68.098 80.9219 68.098ZM80.9219 66.6C81.3512 66.6 81.7339 66.5067 82.0699 66.32C82.4059 66.1333 82.6672 65.8627 82.8539 65.508C83.0499 65.1533 83.1479 64.738 83.1479 64.262C83.1479 63.7767 83.0499 63.3613 82.8539 63.016C82.6672 62.6613 82.4059 62.3907 82.0699 62.204C81.7339 62.0173 81.3559 61.924 80.9359 61.924C80.5065 61.924 80.1239 62.0173 79.7879 62.204C79.4612 62.3907 79.1999 62.6613 79.0039 63.016C78.8079 63.3613 78.7099 63.7767 78.7099 64.262C78.7099 64.738 78.8079 65.1533 79.0039 65.508C79.1999 65.8627 79.4612 66.1333 79.7879 66.32C80.1239 66.5067 80.5019 66.6 80.9219 66.6ZM88.0322 68L85.2882 60.524H86.9402L89.2922 67.118H88.5082L90.9722 60.524H92.4422L94.8362 67.118H94.0662L96.4882 60.524H98.0422L95.2842 68H93.6042L91.4202 62.162H91.9382L89.7122 68H88.0322Z" fill="black"/>
<path d="M110 59L114.95 63L110 67" stroke="black" stroke-width="2" stroke-linecap="round" stroke-linejoin="round"/>
<rect y="84" width="152" height="42" rx="10" fill="#0A8817"/>
<path d="M35.9896 110V100.2H40.5816C41.7576 100.2 42.6536 100.433 43.2696 100.9C43.8856 101.357 44.1936 101.973 44.1936 102.748C44.1936 103.271 44.0723 103.719 43.8296 104.092C43.587 104.456 43.2603 104.741 42.8496 104.946C42.4483 105.142 42.0096 105.24 41.5336 105.24L41.7856 104.736C42.3363 104.736 42.831 104.839 43.2696 105.044C43.7083 105.24 44.0536 105.529 44.3056 105.912C44.567 106.295 44.6976 106.771 44.6976 107.34C44.6976 108.18 44.3756 108.833 43.7316 109.3C43.0876 109.767 42.131 110 40.8616 110H35.9896ZM37.8096 108.572H40.7496C41.431 108.572 41.9536 108.46 42.3176 108.236C42.6816 108.012 42.8636 107.653 42.8636 107.158C42.8636 106.673 42.6816 106.318 42.3176 106.094C41.9536 105.861 41.431 105.744 40.7496 105.744H37.6696V104.33H40.3856C41.0203 104.33 41.5056 104.218 41.8416 103.994C42.187 103.77 42.3596 103.434 42.3596 102.986C42.3596 102.529 42.187 102.188 41.8416 101.964C41.5056 101.74 41.0203 101.628 40.3856 101.628H37.8096V108.572ZM49.636 110.098C49.0014 110.098 48.4414 109.981 47.956 109.748C47.4707 109.505 47.0927 109.141 46.822 108.656C46.5514 108.161 46.416 107.541 46.416 106.794V102.524H48.166V106.556C48.166 107.228 48.3154 107.732 48.614 108.068C48.922 108.395 49.356 108.558 49.916 108.558C50.3267 108.558 50.6814 108.474 50.98 108.306C51.288 108.138 51.526 107.886 51.694 107.55C51.8714 107.214 51.96 106.799 51.96 106.304V102.524H53.71V110H52.044V107.984L52.338 108.6C52.086 109.085 51.7174 109.459 51.232 109.72C50.7467 109.972 50.2147 110.098 49.636 110.098ZM56.6173 112.814C56.2533 112.814 55.8893 112.753 55.5253 112.632C55.1613 112.511 54.858 112.343 54.6153 112.128L55.3153 110.84C55.4927 110.999 55.6933 111.125 55.9173 111.218C56.1413 111.311 56.37 111.358 56.6033 111.358C56.9207 111.358 57.1773 111.279 57.3733 111.12C57.5693 110.961 57.7513 110.695 57.9193 110.322L58.3533 109.342L58.4933 109.132L61.3213 102.524H63.0013L59.5013 110.602C59.268 111.162 59.0067 111.605 58.7173 111.932C58.4373 112.259 58.12 112.487 57.7653 112.618C57.42 112.749 57.0373 112.814 56.6173 112.814ZM58.1573 110.266L54.7833 102.524H56.6033L59.3473 108.978L58.1573 110.266ZM72.2062 102.44C72.8035 102.44 73.3355 102.557 73.8022 102.79C74.2782 103.023 74.6515 103.383 74.9222 103.868C75.1929 104.344 75.3282 104.96 75.3282 105.716V110H73.5782V105.94C73.5782 105.277 73.4195 104.783 73.1022 104.456C72.7942 104.129 72.3602 103.966 71.8002 103.966C71.3895 103.966 71.0255 104.05 70.7082 104.218C70.3909 104.386 70.1435 104.638 69.9662 104.974C69.7982 105.301 69.7142 105.716 69.7142 106.22V110H67.9642V102.524H69.6302V104.54L69.3362 103.924C69.5975 103.448 69.9755 103.084 70.4702 102.832C70.9742 102.571 71.5529 102.44 72.2062 102.44ZM80.9219 110.098C80.1565 110.098 79.4752 109.935 78.8779 109.608C78.2805 109.272 77.8092 108.815 77.4639 108.236C77.1185 107.657 76.9459 106.999 76.9459 106.262C76.9459 105.515 77.1185 104.857 77.4639 104.288C77.8092 103.709 78.2805 103.257 78.8779 102.93C79.4752 102.603 80.1565 102.44 80.9219 102.44C81.6965 102.44 82.3825 102.603 82.9799 102.93C83.5865 103.257 84.0579 103.705 84.3939 104.274C84.7392 104.843 84.9119 105.506 84.9119 106.262C84.9119 106.999 84.7392 107.657 84.3939 108.236C84.0579 108.815 83.5865 109.272 82.9799 109.608C82.3825 109.935 81.6965 110.098 80.9219 110.098ZM80.9219 108.6C81.3512 108.6 81.7339 108.507 82.0699 108.32C82.4059 108.133 82.6672 107.863 82.8539 107.508C83.0499 107.153 83.1479 106.738 83.1479 106.262C83.1479 105.777 83.0499 105.361 82.8539 105.016C82.6672 104.661 82.4059 104.391 82.0699 104.204C81.7339 104.017 81.3559 103.924 80.9359 103.924C80.5065 103.924 80.1239 104.017 79.7879 104.204C79.4612 104.391 79.1999 104.661 79.0039 105.016C78.8079 105.361 78.7099 105.777 78.7099 106.262C78.7099 106.738 78.8079 107.153 79.0039 107.508C79.1999 107.863 79.4612 108.133 79.7879 108.32C80.1239 108.507 80.5019 108.6 80.9219 108.6ZM88.0322 110L85.2882 102.524H86.9402L89.2922 109.118H88.5082L90.9722 102.524H92.4422L94.8362 109.118H94.0662L96.4882 102.524H98.0422L95.2842 110H93.6042L91.4202 104.162H91.9382L89.7122 110H88.0322Z" fill="#FCFCFC"/>
<path d="M110 101L114.95 105L110 109" stroke="#FCFCFC" stroke-width="2" stroke-linecap="round" stroke-linejoin="round"/>
</svg>
