<svg width="768" height="68" viewBox="0 0 768 68" fill="none" xmlns="http://www.w3.org/2000/svg">
<ellipse cx="654.897" cy="62.7514" rx="3.74451" ry="3.84191" fill="#F8D24E"/>
<ellipse cx="663.01" cy="57.6288" rx="3.74451" ry="3.84191" fill="#F8D24E"/>
<ellipse cx="672.371" cy="51.8655" rx="3.74451" ry="3.84191" fill="#F8D24E"/>
<ellipse cx="681.109" cy="46.7429" rx="3.74451" ry="3.84191" fill="#F8D24E"/>
<ellipse cx="676.116" cy="60.1896" rx="3.74451" ry="3.84191" fill="#F8D24E"/>
<ellipse cx="684.229" cy="55.0675" rx="3.74451" ry="3.84191" fill="#F8D24E"/>
<ellipse cx="693.591" cy="49.3044" rx="3.74451" ry="3.84191" fill="#F8D24E"/>
<ellipse cx="702.328" cy="44.182" rx="3.74451" ry="3.84191" fill="#F8D24E"/>
<ellipse cx="694.215" cy="58.2688" rx="3.74451" ry="3.84191" fill="#F8D24E"/>
<ellipse cx="702.328" cy="53.1457" rx="3.74451" ry="3.84191" fill="#F8D24E"/>
<ellipse cx="711.689" cy="47.3831" rx="3.74451" ry="3.84191" fill="#F8D24E"/>
<ellipse cx="720.425" cy="42.2612" rx="3.74451" ry="3.84191" fill="#F8D24E"/>
<ellipse cx="711.689" cy="55.7079" rx="3.74451" ry="3.84191" fill="#F8D24E"/>
<ellipse cx="719.802" cy="50.5849" rx="3.74451" ry="3.84191" fill="#F8D24E"/>
<ellipse cx="729.163" cy="44.8223" rx="3.74451" ry="3.84191" fill="#F8D24E"/>
<ellipse cx="737.901" cy="39.6995" rx="3.74451" ry="3.84191" fill="#F8D24E"/>
<ellipse cx="717.306" cy="62.7514" rx="3.74451" ry="3.84191" fill="#F8D24E"/>
<ellipse cx="725.419" cy="57.6288" rx="3.74451" ry="3.84191" fill="#F8D24E"/>
<ellipse cx="736.652" cy="63.3916" rx="3.74451" ry="3.84191" fill="#F8D24E"/>
<ellipse cx="734.78" cy="51.8655" rx="3.74451" ry="3.84191" fill="#F8D24E"/>
<ellipse cx="746.015" cy="57.6288" rx="3.74451" ry="3.84191" fill="#F8D24E"/>
<ellipse cx="754.751" cy="63.3916" rx="3.74451" ry="3.84191" fill="#F8D24E"/>
<ellipse cx="743.517" cy="46.7429" rx="3.74451" ry="3.84191" fill="#F8D24E"/>
<ellipse cx="754.751" cy="52.5057" rx="3.74451" ry="3.84191" fill="#F8D24E"/>
<ellipse cx="763.488" cy="58.269" rx="3.74451" ry="3.84191" fill="#F8D24E"/>
<ellipse cx="616.828" cy="20.4908" rx="3.74451" ry="3.84191" fill="#F8D24E"/>
<ellipse cx="624.94" cy="15.3677" rx="3.74451" ry="3.84191" fill="#F8D24E"/>
<ellipse cx="634.303" cy="9.60512" rx="3.74451" ry="3.84191" fill="#F8D24E"/>
<ellipse cx="643.039" cy="4.48254" rx="3.74451" ry="3.84191" fill="#F8D24E"/>
<ellipse cx="601.226" cy="19.849" rx="3.74451" ry="3.84191" fill="#F8D24E"/>
<ellipse cx="609.339" cy="14.7269" rx="3.74451" ry="3.84191" fill="#F8D24E"/>
<ellipse cx="618.7" cy="8.96432" rx="3.74451" ry="3.84191" fill="#F8D24E"/>
<ellipse cx="627.437" cy="3.84188" rx="3.74451" ry="3.84191" fill="#F8D24E"/>
<ellipse cx="636.175" cy="62.7514" rx="3.74451" ry="3.84191" fill="#F8D24E"/>
<ellipse cx="644.287" cy="57.6288" rx="3.74451" ry="3.84191" fill="#F8D24E"/>
<ellipse cx="653.649" cy="51.8655" rx="3.74451" ry="3.84191" fill="#F8D24E"/>
<ellipse cx="662.386" cy="46.7429" rx="3.74451" ry="3.84191" fill="#F8D24E"/>
<ellipse cx="626.19" cy="58.9093" rx="3.74451" ry="3.84191" fill="#F8D24E"/>
<ellipse cx="634.303" cy="53.7867" rx="3.74451" ry="3.84191" fill="#F8D24E"/>
<ellipse cx="643.664" cy="48.0236" rx="3.74451" ry="3.84191" fill="#F8D24E"/>
<ellipse cx="652.401" cy="42.9013" rx="3.74451" ry="3.84191" fill="#F8D24E"/>
<ellipse cx="629.933" cy="45.4627" rx="3.74451" ry="3.84191" fill="#F8D24E"/>
<ellipse cx="638.046" cy="40.3401" rx="3.74451" ry="3.84191" fill="#F8D24E"/>
<ellipse cx="647.408" cy="34.577" rx="3.74451" ry="3.84191" fill="#F8D24E"/>
<ellipse cx="656.145" cy="29.4546" rx="3.74451" ry="3.84191" fill="#F8D24E"/>
<ellipse cx="629.933" cy="23.0518" rx="3.74451" ry="3.84191" fill="#F8D24E"/>
<ellipse cx="638.046" cy="17.9287" rx="3.74451" ry="3.84191" fill="#F8D24E"/>
<ellipse cx="647.408" cy="12.1659" rx="3.74451" ry="3.84191" fill="#F8D24E"/>
<ellipse cx="656.145" cy="7.04345" rx="3.74451" ry="3.84191" fill="#F8D24E"/>
<ellipse cx="628.062" cy="35.2179" rx="3.74451" ry="3.84191" fill="#F8D24E"/>
<ellipse cx="636.176" cy="30.0946" rx="3.74451" ry="3.84191" fill="#F8D24E"/>
<ellipse cx="645.536" cy="24.332" rx="3.74451" ry="3.84191" fill="#F8D24E"/>
<ellipse cx="654.273" cy="19.2097" rx="3.74451" ry="3.84191" fill="#F8D24E"/>
<ellipse cx="588.745" cy="16.648" rx="3.74451" ry="3.84191" fill="#F8D24E"/>
<ellipse cx="596.858" cy="11.5254" rx="3.74451" ry="3.84191" fill="#F8D24E"/>
<ellipse cx="606.219" cy="5.76275" rx="3.74451" ry="3.84191" fill="#F8D24E"/>
<path d="M605.595 20.4899C607.663 20.4899 609.34 18.7698 609.34 16.648C609.34 14.5261 607.663 12.8061 605.595 12.8061C603.527 12.8061 601.851 14.5261 601.851 16.648C601.851 18.7698 603.527 20.4899 605.595 20.4899Z" fill="#F8D24E"/>
<ellipse cx="3.74451" cy="60.1166" rx="3.74451" ry="3.84191" fill="#F8D24E"/>
<ellipse cx="11.8568" cy="54.994" rx="3.74451" ry="3.84191" fill="#F8D24E"/>
<ellipse cx="21.2186" cy="49.2313" rx="3.74451" ry="3.84191" fill="#F8D24E"/>
<ellipse cx="29.9563" cy="44.1091" rx="3.74451" ry="3.84191" fill="#F8D24E"/>
<ellipse cx="51.1757" cy="62.038" rx="3.74451" ry="3.84191" fill="#F8D24E"/>
<ellipse cx="59.288" cy="56.9148" rx="3.74451" ry="3.84191" fill="#F8D24E"/>
<ellipse cx="68.6498" cy="51.1523" rx="3.74451" ry="3.84191" fill="#F8D24E"/>
<ellipse cx="77.3857" cy="46.0297" rx="3.74451" ry="3.84191" fill="#F8D24E"/>
<ellipse cx="70.5223" cy="59.4758" rx="3.74451" ry="3.84191" fill="#F8D24E"/>
<ellipse cx="78.6346" cy="54.3537" rx="3.74451" ry="3.84191" fill="#F8D24E"/>
<ellipse cx="87.996" cy="48.5906" rx="3.74451" ry="3.84191" fill="#F8D24E"/>
<ellipse cx="96.7328" cy="43.468" rx="3.74451" ry="3.84191" fill="#F8D24E"/>
<ellipse cx="106.095" cy="35.7844" rx="3.74451" ry="3.84191" fill="#F8D24E"/>
<ellipse cx="86.1234" cy="40.2666" rx="3.74451" ry="3.84191" fill="#F8D24E"/>
<ellipse cx="33.701" cy="61.3974" rx="3.74451" ry="3.84191" fill="#F8D24E"/>
<ellipse cx="41.8138" cy="56.2746" rx="3.74451" ry="3.84191" fill="#F8D24E"/>
<ellipse cx="51.1757" cy="50.5116" rx="3.74451" ry="3.84191" fill="#F8D24E"/>
<ellipse cx="59.9116" cy="45.3895" rx="3.74451" ry="3.84191" fill="#F8D24E"/>
<ellipse cx="18.0985" cy="60.7564" rx="3.74451" ry="3.84191" fill="#F8D24E"/>
<ellipse cx="26.2118" cy="55.6338" rx="3.74451" ry="3.84191" fill="#F8D24E"/>
<ellipse cx="35.5726" cy="49.8713" rx="3.74451" ry="3.84191" fill="#F8D24E"/>
<ellipse cx="44.3094" cy="44.7489" rx="3.74451" ry="3.84191" fill="#F8D24E"/>
</svg>
