<svg width="328" height="50" viewBox="0 0 328 50" fill="none" xmlns="http://www.w3.org/2000/svg">
<ellipse cx="248.042" cy="46.2757" rx="2.6652" ry="2.77865" fill="#F8D24E"/>
<ellipse cx="253.818" cy="42.5708" rx="2.6652" ry="2.77865" fill="#F8D24E"/>
<ellipse cx="260.479" cy="38.4026" rx="2.6652" ry="2.77865" fill="#F8D24E"/>
<ellipse cx="266.699" cy="34.6976" rx="2.6652" ry="2.77865" fill="#F8D24E"/>
<ellipse cx="263.144" cy="44.4233" rx="2.6652" ry="2.77865" fill="#F8D24E"/>
<ellipse cx="268.919" cy="40.7185" rx="2.6652" ry="2.77865" fill="#F8D24E"/>
<ellipse cx="275.581" cy="36.5505" rx="2.6652" ry="2.77865" fill="#F8D24E"/>
<ellipse cx="281.802" cy="32.8459" rx="2.6652" ry="2.77865" fill="#F8D24E"/>
<ellipse cx="276.027" cy="43.0343" rx="2.6652" ry="2.77865" fill="#F8D24E"/>
<ellipse cx="281.803" cy="39.3289" rx="2.6652" ry="2.77865" fill="#F8D24E"/>
<ellipse cx="288.466" cy="35.1611" rx="2.6652" ry="2.77865" fill="#F8D24E"/>
<ellipse cx="294.683" cy="31.4569" rx="2.6652" ry="2.77865" fill="#F8D24E"/>
<ellipse cx="288.464" cy="41.182" rx="2.6652" ry="2.77865" fill="#F8D24E"/>
<ellipse cx="294.237" cy="37.4768" rx="2.6652" ry="2.77865" fill="#F8D24E"/>
<ellipse cx="300.901" cy="33.3089" rx="2.6652" ry="2.77865" fill="#F8D24E"/>
<ellipse cx="307.12" cy="29.6041" rx="2.6652" ry="2.77865" fill="#F8D24E"/>
<ellipse cx="292.463" cy="46.2757" rx="2.6652" ry="2.77865" fill="#F8D24E"/>
<ellipse cx="298.238" cy="42.5708" rx="2.6652" ry="2.77865" fill="#F8D24E"/>
<ellipse cx="306.234" cy="46.7387" rx="2.6652" ry="2.77865" fill="#F8D24E"/>
<ellipse cx="304.902" cy="38.4026" rx="2.6652" ry="2.77865" fill="#F8D24E"/>
<ellipse cx="312.897" cy="42.5708" rx="2.6652" ry="2.77865" fill="#F8D24E"/>
<ellipse cx="319.116" cy="46.7387" rx="2.6652" ry="2.77865" fill="#F8D24E"/>
<ellipse cx="311.12" cy="34.6976" rx="2.6652" ry="2.77865" fill="#F8D24E"/>
<ellipse cx="319.116" cy="38.8654" rx="2.6652" ry="2.77865" fill="#F8D24E"/>
<ellipse cx="325.335" cy="43.0338" rx="2.6652" ry="2.77865" fill="#F8D24E"/>
<ellipse cx="220.948" cy="15.7111" rx="2.6652" ry="2.77865" fill="#F8D24E"/>
<ellipse cx="226.722" cy="12.0058" rx="2.6652" ry="2.77865" fill="#F8D24E"/>
<ellipse cx="233.387" cy="7.83822" rx="2.6652" ry="2.77865" fill="#F8D24E"/>
<ellipse cx="239.604" cy="4.13339" rx="2.6652" ry="2.77865" fill="#F8D24E"/>
<ellipse cx="209.842" cy="15.247" rx="2.6652" ry="2.77865" fill="#F8D24E"/>
<ellipse cx="215.615" cy="11.5424" rx="2.6652" ry="2.77865" fill="#F8D24E"/>
<ellipse cx="222.278" cy="7.37485" rx="2.6652" ry="2.77865" fill="#F8D24E"/>
<ellipse cx="228.497" cy="3.67001" rx="2.6652" ry="2.77865" fill="#F8D24E"/>
<ellipse cx="234.716" cy="46.2757" rx="2.6652" ry="2.77865" fill="#F8D24E"/>
<ellipse cx="240.489" cy="42.5708" rx="2.6652" ry="2.77865" fill="#F8D24E"/>
<ellipse cx="247.152" cy="38.4026" rx="2.6652" ry="2.77865" fill="#F8D24E"/>
<ellipse cx="253.372" cy="34.6976" rx="2.6652" ry="2.77865" fill="#F8D24E"/>
<ellipse cx="227.61" cy="43.4975" rx="2.6652" ry="2.77865" fill="#F8D24E"/>
<ellipse cx="233.384" cy="39.7926" rx="2.6652" ry="2.77865" fill="#F8D24E"/>
<ellipse cx="240.046" cy="35.6244" rx="2.6652" ry="2.77865" fill="#F8D24E"/>
<ellipse cx="246.266" cy="31.9196" rx="2.6652" ry="2.77865" fill="#F8D24E"/>
<ellipse cx="230.275" cy="33.7721" rx="2.6652" ry="2.77865" fill="#F8D24E"/>
<ellipse cx="236.048" cy="30.0672" rx="2.6652" ry="2.77865" fill="#F8D24E"/>
<ellipse cx="242.713" cy="25.899" rx="2.6652" ry="2.77865" fill="#F8D24E"/>
<ellipse cx="248.931" cy="22.1944" rx="2.6652" ry="2.77865" fill="#F8D24E"/>
<ellipse cx="230.275" cy="17.5631" rx="2.6652" ry="2.77865" fill="#F8D24E"/>
<ellipse cx="236.048" cy="13.8579" rx="2.6652" ry="2.77865" fill="#F8D24E"/>
<ellipse cx="242.713" cy="9.69015" rx="2.6652" ry="2.77865" fill="#F8D24E"/>
<ellipse cx="248.931" cy="5.9852" rx="2.6652" ry="2.77865" fill="#F8D24E"/>
<ellipse cx="228.942" cy="26.3628" rx="2.6652" ry="2.77865" fill="#F8D24E"/>
<ellipse cx="234.717" cy="22.6573" rx="2.6652" ry="2.77865" fill="#F8D24E"/>
<ellipse cx="241.379" cy="18.4896" rx="2.6652" ry="2.77865" fill="#F8D24E"/>
<ellipse cx="247.598" cy="14.7849" rx="2.6652" ry="2.77865" fill="#F8D24E"/>
<ellipse cx="200.957" cy="12.9317" rx="2.6652" ry="2.77865" fill="#F8D24E"/>
<ellipse cx="206.733" cy="9.22677" rx="2.6652" ry="2.77865" fill="#F8D24E"/>
<ellipse cx="213.396" cy="5.05917" rx="2.6652" ry="2.77865" fill="#F8D24E"/>
<path d="M212.951 15.7104C214.423 15.7104 215.617 14.4663 215.617 12.9317C215.617 11.3971 214.423 10.1531 212.951 10.1531C211.479 10.1531 210.286 11.3971 210.286 12.9317C210.286 14.4663 211.479 15.7104 212.951 15.7104Z" fill="#F8D24E"/>
<ellipse cx="2.70733" cy="2.81717" rx="2.70733" ry="2.81717" transform="matrix(0.987476 -0.157829 0.145482 0.98937 84.6377 31.6222)" fill="#F8D24E"/>
<ellipse cx="2.70733" cy="2.81717" rx="2.70733" ry="2.81717" transform="matrix(0.987476 -0.157829 0.145482 0.98937 89.8838 26.9792)" fill="#F8D24E"/>
<ellipse cx="2.70733" cy="2.81717" rx="2.70733" ry="2.81717" transform="matrix(0.987476 -0.157829 0.145482 0.98937 95.9531 21.7306)" fill="#F8D24E"/>
<ellipse cx="2.70733" cy="2.81717" rx="2.70733" ry="2.81717" transform="matrix(0.987476 -0.157829 0.145482 0.98937 101.645 17.0173)" fill="#F8D24E"/>
<ellipse cx="2.71977" cy="33.5514" rx="2.71977" ry="2.81979" fill="#F8D24E"/>
<ellipse cx="8.61137" cy="29.7916" rx="2.71977" ry="2.81979" fill="#F8D24E"/>
<ellipse cx="15.4131" cy="25.562" rx="2.71977" ry="2.81979" fill="#F8D24E"/>
<ellipse cx="21.7579" cy="21.8017" rx="2.71977" ry="2.81979" fill="#F8D24E"/>
<ellipse cx="5.44047" cy="40.6005" rx="2.71977" ry="2.81979" fill="#F8D24E"/>
<ellipse cx="11.3331" cy="36.8408" rx="2.71977" ry="2.81979" fill="#F8D24E"/>
<ellipse cx="18.1338" cy="32.611" rx="2.71977" ry="2.81979" fill="#F8D24E"/>
<ellipse cx="24.4786" cy="28.8513" rx="2.71977" ry="2.81979" fill="#F8D24E"/>
<ellipse cx="12.2383" cy="44.3598" rx="2.71977" ry="2.81979" fill="#F8D24E"/>
<ellipse cx="18.1319" cy="40.6004" rx="2.71977" ry="2.81979" fill="#F8D24E"/>
<ellipse cx="24.9307" cy="36.3707" rx="2.71977" ry="2.81979" fill="#F8D24E"/>
<ellipse cx="31.2764" cy="32.611" rx="2.71977" ry="2.81979" fill="#F8D24E"/>
<ellipse cx="19.9434" cy="46.7105" rx="2.71977" ry="2.81979" fill="#F8D24E"/>
<ellipse cx="25.836" cy="42.95" rx="2.71977" ry="2.81979" fill="#F8D24E"/>
<ellipse cx="32.6377" cy="38.7208" rx="2.71977" ry="2.81979" fill="#F8D24E"/>
<ellipse cx="38.9815" cy="34.961" rx="2.71977" ry="2.81979" fill="#F8D24E"/>
<ellipse cx="29.917" cy="47.1805" rx="2.71977" ry="2.81979" fill="#F8D24E"/>
<ellipse cx="35.8096" cy="43.4207" rx="2.71977" ry="2.81979" fill="#F8D24E"/>
<ellipse cx="42.6104" cy="39.1908" rx="2.71977" ry="2.81979" fill="#F8D24E"/>
<ellipse cx="48.9551" cy="35.4315" rx="2.71977" ry="2.81979" fill="#F8D24E"/>
<ellipse cx="41.7041" cy="47.1803" rx="2.71977" ry="2.81979" fill="#F8D24E"/>
<ellipse cx="47.5957" cy="43.4205" rx="2.71977" ry="2.81979" fill="#F8D24E"/>
<ellipse cx="54.3956" cy="39.1905" rx="2.71977" ry="2.81979" fill="#F8D24E"/>
<ellipse cx="60.7422" cy="35.4312" rx="2.71977" ry="2.81979" fill="#F8D24E"/>
<ellipse cx="51.6739" cy="46.7103" rx="2.71977" ry="2.81979" fill="#F8D24E"/>
<ellipse cx="57.5665" cy="42.95" rx="2.71977" ry="2.81979" fill="#F8D24E"/>
<ellipse cx="64.3672" cy="38.7208" rx="2.71977" ry="2.81979" fill="#F8D24E"/>
<ellipse cx="70.712" cy="34.961" rx="2.71977" ry="2.81979" fill="#F8D24E"/>
<ellipse cx="63.0059" cy="46.24" rx="2.71977" ry="2.81979" fill="#F8D24E"/>
<ellipse cx="68.8985" cy="42.4804" rx="2.71977" ry="2.81979" fill="#F8D24E"/>
<ellipse cx="75.6993" cy="38.2509" rx="2.71977" ry="2.81979" fill="#F8D24E"/>
<ellipse cx="82.044" cy="34.4909" rx="2.71977" ry="2.81979" fill="#F8D24E"/>
<ellipse cx="73.4317" cy="34.0211" rx="2.71977" ry="2.81979" fill="#F8D24E"/>
<ellipse cx="79.3243" cy="30.2614" rx="2.71977" ry="2.81979" fill="#F8D24E"/>
<ellipse cx="86.1241" cy="26.0317" rx="2.71977" ry="2.81979" fill="#F8D24E"/>
<ellipse cx="92.4698" cy="22.2717" rx="2.71977" ry="2.81979" fill="#F8D24E"/>
</svg>
