<svg width="62" height="72" viewBox="0 0 62 72" fill="none" xmlns="http://www.w3.org/2000/svg">
<rect x="1" y="49" width="60" height="22" rx="7" stroke="#0A8817" stroke-width="2"/>
<path d="M13.1153 63V57.4H15.4193C15.9153 57.4 16.3393 57.48 16.6913 57.64C17.0486 57.8 17.3233 58.0293 17.5153 58.328C17.7073 58.6267 17.8033 58.9813 17.8033 59.392C17.8033 59.8027 17.7073 60.1573 17.5153 60.456C17.3233 60.7547 17.0486 60.984 16.6913 61.144C16.3393 61.304 15.9153 61.384 15.4193 61.384H13.6913L14.1553 60.896V63H13.1153ZM14.1553 61.008L13.6913 60.504H15.3713C15.8299 60.504 16.1739 60.408 16.4033 60.216C16.6379 60.0187 16.7553 59.744 16.7553 59.392C16.7553 59.0347 16.6379 58.76 16.4033 58.568C16.1739 58.376 15.8299 58.28 15.3713 58.28H13.6913L14.1553 57.768V61.008ZM18.7068 63V58.728H19.6588V59.904L19.5468 59.56C19.6748 59.272 19.8748 59.0533 20.1468 58.904C20.4241 58.7547 20.7681 58.68 21.1788 58.68V59.632C21.1361 59.6213 21.0961 59.616 21.0588 59.616C21.0214 59.6107 20.9841 59.608 20.9468 59.608C20.5681 59.608 20.2668 59.72 20.0428 59.944C19.8188 60.1627 19.7068 60.4907 19.7068 60.928V63H18.7068ZM23.908 63.056C23.4707 63.056 23.0814 62.9627 22.74 62.776C22.3987 62.584 22.1294 62.3227 21.932 61.992C21.7347 61.6613 21.636 61.2853 21.636 60.864C21.636 60.4373 21.7347 60.0613 21.932 59.736C22.1294 59.4053 22.3987 59.1467 22.74 58.96C23.0814 58.7733 23.4707 58.68 23.908 58.68C24.3507 58.68 24.7427 58.7733 25.084 58.96C25.4307 59.1467 25.7 59.4027 25.892 59.728C26.0894 60.0533 26.188 60.432 26.188 60.864C26.188 61.2853 26.0894 61.6613 25.892 61.992C25.7 62.3227 25.4307 62.584 25.084 62.776C24.7427 62.9627 24.3507 63.056 23.908 63.056ZM23.908 62.2C24.1534 62.2 24.372 62.1467 24.564 62.04C24.756 61.9333 24.9054 61.7787 25.012 61.576C25.124 61.3733 25.18 61.136 25.18 60.864C25.18 60.5867 25.124 60.3493 25.012 60.152C24.9054 59.9493 24.756 59.7947 24.564 59.688C24.372 59.5813 24.156 59.528 23.916 59.528C23.6707 59.528 23.452 59.5813 23.26 59.688C23.0734 59.7947 22.924 59.9493 22.812 60.152C22.7 60.3493 22.644 60.5867 22.644 60.864C22.644 61.136 22.7 61.3733 22.812 61.576C22.924 61.7787 23.0734 61.9333 23.26 62.04C23.452 62.1467 23.668 62.2 23.908 62.2ZM28.9523 63.056C28.5416 63.056 28.1709 62.9653 27.8403 62.784C27.5149 62.5973 27.2589 62.3413 27.0723 62.016C26.8856 61.6907 26.7923 61.3067 26.7923 60.864C26.7923 60.4213 26.8856 60.0373 27.0723 59.712C27.2589 59.3867 27.5149 59.1333 27.8403 58.952C28.1709 58.7707 28.5416 58.68 28.9523 58.68C29.3096 58.68 29.6296 58.76 29.9123 58.92C30.1949 59.0747 30.4189 59.312 30.5843 59.632C30.7496 59.952 30.8323 60.3627 30.8323 60.864C30.8323 61.36 30.7523 61.7707 30.5923 62.096C30.4323 62.416 30.2109 62.656 29.9283 62.816C29.6456 62.976 29.3203 63.056 28.9523 63.056ZM29.0723 62.2C29.3123 62.2 29.5256 62.1467 29.7123 62.04C29.9043 61.9333 30.0563 61.7787 30.1683 61.576C30.2856 61.3733 30.3443 61.136 30.3443 60.864C30.3443 60.5867 30.2856 60.3493 30.1683 60.152C30.0563 59.9493 29.9043 59.7947 29.7123 59.688C29.5256 59.5813 29.3123 59.528 29.0723 59.528C28.8323 59.528 28.6163 59.5813 28.4243 59.688C28.2376 59.7947 28.0856 59.9493 27.9683 60.152C27.8563 60.3493 27.8003 60.5867 27.8003 60.864C27.8003 61.136 27.8563 61.3733 27.9683 61.576C28.0856 61.7787 28.2376 61.9333 28.4243 62.04C28.6163 62.1467 28.8323 62.2 29.0723 62.2ZM30.3683 63V61.992L30.4083 60.856L30.3283 59.72V57.064H31.3203V63H30.3683ZM34.4445 63.056C34.0818 63.056 33.7618 62.9893 33.4845 62.856C33.2071 62.7173 32.9911 62.5093 32.8365 62.232C32.6818 61.9493 32.6045 61.5947 32.6045 61.168V58.728H33.6045V61.032C33.6045 61.416 33.6898 61.704 33.8605 61.896C34.0365 62.0827 34.2845 62.176 34.6045 62.176C34.8391 62.176 35.0418 62.128 35.2125 62.032C35.3885 61.936 35.5245 61.792 35.6205 61.6C35.7218 61.408 35.7725 61.1707 35.7725 60.888V58.728H36.7725V63H35.8205V61.848L35.9885 62.2C35.8445 62.4773 35.6338 62.6907 35.3565 62.84C35.0791 62.984 34.7751 63.056 34.4445 63.056ZM40.0418 63.056C39.5938 63.056 39.1938 62.9627 38.8418 62.776C38.4951 62.584 38.2231 62.3227 38.0258 61.992C37.8284 61.6613 37.7298 61.2853 37.7298 60.864C37.7298 60.4373 37.8284 60.0613 38.0258 59.736C38.2231 59.4053 38.4951 59.1467 38.8418 58.96C39.1938 58.7733 39.5938 58.68 40.0418 58.68C40.4578 58.68 40.8231 58.7653 41.1378 58.936C41.4578 59.1013 41.7004 59.3467 41.8658 59.672L41.0978 60.12C40.9698 59.9173 40.8124 59.768 40.6258 59.672C40.4444 59.576 40.2471 59.528 40.0338 59.528C39.7884 59.528 39.5671 59.5813 39.3698 59.688C39.1724 59.7947 39.0178 59.9493 38.9058 60.152C38.7938 60.3493 38.7378 60.5867 38.7378 60.864C38.7378 61.1413 38.7938 61.3813 38.9058 61.584C39.0178 61.7813 39.1724 61.9333 39.3698 62.04C39.5671 62.1467 39.7884 62.2 40.0338 62.2C40.2471 62.2 40.4444 62.152 40.6258 62.056C40.8124 61.96 40.9698 61.8107 41.0978 61.608L41.8658 62.056C41.7004 62.376 41.4578 62.624 41.1378 62.8C40.8231 62.9707 40.4578 63.056 40.0418 63.056ZM44.3929 63.056C43.9236 63.056 43.5609 62.936 43.3049 62.696C43.0489 62.4507 42.9209 62.0907 42.9209 61.616V57.784H43.9209V61.592C43.9209 61.7947 43.9716 61.952 44.0729 62.064C44.1796 62.176 44.3262 62.232 44.5129 62.232C44.7369 62.232 44.9236 62.1733 45.0729 62.056L45.3529 62.768C45.2356 62.864 45.0916 62.936 44.9209 62.984C44.7502 63.032 44.5742 63.056 44.3929 63.056ZM42.2169 59.56V58.76H45.0649V59.56H42.2169ZM47.4955 63.056C47.1382 63.056 46.7942 63.0107 46.4635 62.92C46.1382 62.824 45.8795 62.7093 45.6875 62.576L46.0715 61.816C46.2635 61.9387 46.4929 62.04 46.7595 62.12C47.0262 62.2 47.2929 62.24 47.5595 62.24C47.8742 62.24 48.1009 62.1973 48.2395 62.112C48.3835 62.0267 48.4555 61.912 48.4555 61.768C48.4555 61.6507 48.4075 61.5627 48.3115 61.504C48.2155 61.44 48.0902 61.392 47.9355 61.36C47.7809 61.328 47.6075 61.2987 47.4155 61.272C47.2289 61.2453 47.0395 61.2107 46.8475 61.168C46.6609 61.12 46.4902 61.0533 46.3355 60.968C46.1809 60.8773 46.0555 60.7573 45.9595 60.608C45.8635 60.4587 45.8155 60.2613 45.8155 60.016C45.8155 59.744 45.8929 59.5093 46.0475 59.312C46.2022 59.1093 46.4182 58.9547 46.6955 58.848C46.9782 58.736 47.3115 58.68 47.6955 58.68C47.9835 58.68 48.2742 58.712 48.5675 58.776C48.8609 58.84 49.1035 58.9307 49.2955 59.048L48.9115 59.808C48.7089 59.6853 48.5035 59.6027 48.2955 59.56C48.0929 59.512 47.8902 59.488 47.6875 59.488C47.3835 59.488 47.1569 59.5333 47.0075 59.624C46.8635 59.7147 46.7915 59.8293 46.7915 59.968C46.7915 60.096 46.8395 60.192 46.9355 60.256C47.0315 60.32 47.1569 60.3707 47.3115 60.408C47.4662 60.4453 47.6369 60.4773 47.8235 60.504C48.0155 60.5253 48.2049 60.56 48.3915 60.608C48.5782 60.656 48.7489 60.7227 48.9035 60.808C49.0635 60.888 49.1915 61.0027 49.2875 61.152C49.3835 61.3013 49.4315 61.496 49.4315 61.736C49.4315 62.0027 49.3515 62.2347 49.1915 62.432C49.0369 62.6293 48.8155 62.784 48.5275 62.896C48.2395 63.0027 47.8955 63.056 47.4955 63.056Z" fill="#FCFCFC"/>
<rect x="1" y="25" width="60" height="22" rx="7" stroke="#0A8817" stroke-width="2"/>
<path d="M12.5191 39V33.4H14.8231C15.3191 33.4 15.7431 33.48 16.0951 33.64C16.4525 33.8 16.7271 34.0293 16.9191 34.328C17.1111 34.6267 17.2071 34.9813 17.2071 35.392C17.2071 35.8027 17.1111 36.1573 16.9191 36.456C16.7271 36.7547 16.4525 36.984 16.0951 37.144C15.7431 37.304 15.3191 37.384 14.8231 37.384H13.0951L13.5591 36.896V39H12.5191ZM13.5591 37.008L13.0951 36.504H14.7751C15.2338 36.504 15.5778 36.408 15.8071 36.216C16.0418 36.0187 16.1591 35.744 16.1591 35.392C16.1591 35.0347 16.0418 34.76 15.8071 34.568C15.5778 34.376 15.2338 34.28 14.7751 34.28H13.0951L13.5591 33.768V37.008ZM18.1106 39V34.728H19.0626V35.904L18.9506 35.56C19.0786 35.272 19.2786 35.0533 19.5506 34.904C19.828 34.7547 20.172 34.68 20.5826 34.68V35.632C20.54 35.6213 20.5 35.616 20.4626 35.616C20.4253 35.6107 20.388 35.608 20.3506 35.608C19.972 35.608 19.6706 35.72 19.4466 35.944C19.2226 36.1627 19.1106 36.4907 19.1106 36.928V39H18.1106ZM23.3119 39.056C22.8745 39.056 22.4852 38.9627 22.1439 38.776C21.8025 38.584 21.5332 38.3227 21.3359 37.992C21.1385 37.6613 21.0399 37.2853 21.0399 36.864C21.0399 36.4373 21.1385 36.0613 21.3359 35.736C21.5332 35.4053 21.8025 35.1467 22.1439 34.96C22.4852 34.7733 22.8745 34.68 23.3119 34.68C23.7545 34.68 24.1465 34.7733 24.4879 34.96C24.8345 35.1467 25.1039 35.4027 25.2959 35.728C25.4932 36.0533 25.5919 36.432 25.5919 36.864C25.5919 37.2853 25.4932 37.6613 25.2959 37.992C25.1039 38.3227 24.8345 38.584 24.4879 38.776C24.1465 38.9627 23.7545 39.056 23.3119 39.056ZM23.3119 38.2C23.5572 38.2 23.7759 38.1467 23.9679 38.04C24.1599 37.9333 24.3092 37.7787 24.4159 37.576C24.5279 37.3733 24.5839 37.136 24.5839 36.864C24.5839 36.5867 24.5279 36.3493 24.4159 36.152C24.3092 35.9493 24.1599 35.7947 23.9679 35.688C23.7759 35.5813 23.5599 35.528 23.3199 35.528C23.0745 35.528 22.8559 35.5813 22.6639 35.688C22.4772 35.7947 22.3279 35.9493 22.2159 36.152C22.1039 36.3493 22.0479 36.5867 22.0479 36.864C22.0479 37.136 22.1039 37.3733 22.2159 37.576C22.3279 37.7787 22.4772 37.9333 22.6639 38.04C22.8559 38.1467 23.0719 38.2 23.3119 38.2ZM28.3561 39.056C27.9455 39.056 27.5748 38.9653 27.2441 38.784C26.9188 38.5973 26.6628 38.3413 26.4761 38.016C26.2895 37.6907 26.1961 37.3067 26.1961 36.864C26.1961 36.4213 26.2895 36.0373 26.4761 35.712C26.6628 35.3867 26.9188 35.1333 27.2441 34.952C27.5748 34.7707 27.9455 34.68 28.3561 34.68C28.7135 34.68 29.0335 34.76 29.3161 34.92C29.5988 35.0747 29.8228 35.312 29.9881 35.632C30.1535 35.952 30.2361 36.3627 30.2361 36.864C30.2361 37.36 30.1561 37.7707 29.9961 38.096C29.8361 38.416 29.6148 38.656 29.3321 38.816C29.0495 38.976 28.7241 39.056 28.3561 39.056ZM28.4761 38.2C28.7161 38.2 28.9295 38.1467 29.1161 38.04C29.3081 37.9333 29.4601 37.7787 29.5721 37.576C29.6895 37.3733 29.7481 37.136 29.7481 36.864C29.7481 36.5867 29.6895 36.3493 29.5721 36.152C29.4601 35.9493 29.3081 35.7947 29.1161 35.688C28.9295 35.5813 28.7161 35.528 28.4761 35.528C28.2361 35.528 28.0201 35.5813 27.8281 35.688C27.6415 35.7947 27.4895 35.9493 27.3721 36.152C27.2601 36.3493 27.2041 36.5867 27.2041 36.864C27.2041 37.136 27.2601 37.3733 27.3721 37.576C27.4895 37.7787 27.6415 37.9333 27.8281 38.04C28.0201 38.1467 28.2361 38.2 28.4761 38.2ZM29.7721 39V37.992L29.8121 36.856L29.7321 35.72V33.064H30.7241V39H29.7721ZM33.8483 39.056C33.4856 39.056 33.1656 38.9893 32.8883 38.856C32.611 38.7173 32.395 38.5093 32.2403 38.232C32.0856 37.9493 32.0083 37.5947 32.0083 37.168V34.728H33.0083V37.032C33.0083 37.416 33.0936 37.704 33.2643 37.896C33.4403 38.0827 33.6883 38.176 34.0083 38.176C34.243 38.176 34.4456 38.128 34.6163 38.032C34.7923 37.936 34.9283 37.792 35.0243 37.6C35.1256 37.408 35.1763 37.1707 35.1763 36.888V34.728H36.1763V39H35.2243V37.848L35.3923 38.2C35.2483 38.4773 35.0376 38.6907 34.7603 38.84C34.483 38.984 34.179 39.056 33.8483 39.056ZM39.4456 39.056C38.9976 39.056 38.5976 38.9627 38.2456 38.776C37.899 38.584 37.627 38.3227 37.4296 37.992C37.2323 37.6613 37.1336 37.2853 37.1336 36.864C37.1336 36.4373 37.2323 36.0613 37.4296 35.736C37.627 35.4053 37.899 35.1467 38.2456 34.96C38.5976 34.7733 38.9976 34.68 39.4456 34.68C39.8616 34.68 40.227 34.7653 40.5416 34.936C40.8616 35.1013 41.1043 35.3467 41.2696 35.672L40.5016 36.12C40.3736 35.9173 40.2163 35.768 40.0296 35.672C39.8483 35.576 39.651 35.528 39.4376 35.528C39.1923 35.528 38.971 35.5813 38.7736 35.688C38.5763 35.7947 38.4216 35.9493 38.3096 36.152C38.1976 36.3493 38.1416 36.5867 38.1416 36.864C38.1416 37.1413 38.1976 37.3813 38.3096 37.584C38.4216 37.7813 38.5763 37.9333 38.7736 38.04C38.971 38.1467 39.1923 38.2 39.4376 38.2C39.651 38.2 39.8483 38.152 40.0296 38.056C40.2163 37.96 40.3736 37.8107 40.5016 37.608L41.2696 38.056C41.1043 38.376 40.8616 38.624 40.5416 38.8C40.227 38.9707 39.8616 39.056 39.4456 39.056ZM43.7968 39.056C43.3274 39.056 42.9648 38.936 42.7088 38.696C42.4528 38.4507 42.3248 38.0907 42.3248 37.616V33.784H43.3248V37.592C43.3248 37.7947 43.3754 37.952 43.4768 38.064C43.5834 38.176 43.7301 38.232 43.9168 38.232C44.1408 38.232 44.3274 38.1733 44.4768 38.056L44.7568 38.768C44.6394 38.864 44.4954 38.936 44.3248 38.984C44.1541 39.032 43.9781 39.056 43.7968 39.056ZM41.6208 35.56V34.76H44.4688V35.56H41.6208ZM46.8994 39.056C46.542 39.056 46.198 39.0107 45.8674 38.92C45.542 38.824 45.2834 38.7093 45.0914 38.576L45.4754 37.816C45.6674 37.9387 45.8967 38.04 46.1634 38.12C46.43 38.2 46.6967 38.24 46.9634 38.24C47.278 38.24 47.5047 38.1973 47.6434 38.112C47.7874 38.0267 47.8594 37.912 47.8594 37.768C47.8594 37.6507 47.8114 37.5627 47.7154 37.504C47.6194 37.44 47.494 37.392 47.3394 37.36C47.1847 37.328 47.0114 37.2987 46.8194 37.272C46.6327 37.2453 46.4434 37.2107 46.2514 37.168C46.0647 37.12 45.894 37.0533 45.7394 36.968C45.5847 36.8773 45.4594 36.7573 45.3634 36.608C45.2674 36.4587 45.2194 36.2613 45.2194 36.016C45.2194 35.744 45.2967 35.5093 45.4514 35.312C45.606 35.1093 45.822 34.9547 46.0994 34.848C46.382 34.736 46.7154 34.68 47.0994 34.68C47.3874 34.68 47.678 34.712 47.9714 34.776C48.2647 34.84 48.5074 34.9307 48.6994 35.048L48.3154 35.808C48.1127 35.6853 47.9074 35.6027 47.6994 35.56C47.4967 35.512 47.294 35.488 47.0914 35.488C46.7874 35.488 46.5607 35.5333 46.4114 35.624C46.2674 35.7147 46.1954 35.8293 46.1954 35.968C46.1954 36.096 46.2434 36.192 46.3394 36.256C46.4354 36.32 46.5607 36.3707 46.7154 36.408C46.87 36.4453 47.0407 36.4773 47.2274 36.504C47.4194 36.5253 47.6087 36.56 47.7954 36.608C47.982 36.656 48.1527 36.7227 48.3074 36.808C48.4674 36.888 48.5954 37.0027 48.6914 37.152C48.7874 37.3013 48.8354 37.496 48.8354 37.736C48.8354 38.0027 48.7554 38.2347 48.5954 38.432C48.4407 38.6293 48.2194 38.784 47.9314 38.896C47.6434 39.0027 47.2994 39.056 46.8994 39.056Z" fill="black"/>
<rect x="1" y="1" width="60" height="22" rx="7" stroke="#F8D24E" stroke-width="2"/>
<path d="M13.1153 15V9.4H15.4193C15.9153 9.4 16.3393 9.48 16.6913 9.64C17.0486 9.8 17.3233 10.0293 17.5153 10.328C17.7073 10.6267 17.8033 10.9813 17.8033 11.392C17.8033 11.8027 17.7073 12.1573 17.5153 12.456C17.3233 12.7547 17.0486 12.984 16.6913 13.144C16.3393 13.304 15.9153 13.384 15.4193 13.384H13.6913L14.1553 12.896V15H13.1153ZM14.1553 13.008L13.6913 12.504H15.3713C15.8299 12.504 16.1739 12.408 16.4033 12.216C16.6379 12.0187 16.7553 11.744 16.7553 11.392C16.7553 11.0347 16.6379 10.76 16.4033 10.568C16.1739 10.376 15.8299 10.28 15.3713 10.28H13.6913L14.1553 9.768V13.008ZM18.7068 15V10.728H19.6588V11.904L19.5468 11.56C19.6748 11.272 19.8748 11.0533 20.1468 10.904C20.4241 10.7547 20.7681 10.68 21.1788 10.68V11.632C21.1361 11.6213 21.0961 11.616 21.0588 11.616C21.0214 11.6107 20.9841 11.608 20.9468 11.608C20.5681 11.608 20.2668 11.72 20.0428 11.944C19.8188 12.1627 19.7068 12.4907 19.7068 12.928V15H18.7068ZM23.908 15.056C23.4707 15.056 23.0814 14.9627 22.74 14.776C22.3987 14.584 22.1294 14.3227 21.932 13.992C21.7347 13.6613 21.636 13.2853 21.636 12.864C21.636 12.4373 21.7347 12.0613 21.932 11.736C22.1294 11.4053 22.3987 11.1467 22.74 10.96C23.0814 10.7733 23.4707 10.68 23.908 10.68C24.3507 10.68 24.7427 10.7733 25.084 10.96C25.4307 11.1467 25.7 11.4027 25.892 11.728C26.0894 12.0533 26.188 12.432 26.188 12.864C26.188 13.2853 26.0894 13.6613 25.892 13.992C25.7 14.3227 25.4307 14.584 25.084 14.776C24.7427 14.9627 24.3507 15.056 23.908 15.056ZM23.908 14.2C24.1534 14.2 24.372 14.1467 24.564 14.04C24.756 13.9333 24.9054 13.7787 25.012 13.576C25.124 13.3733 25.18 13.136 25.18 12.864C25.18 12.5867 25.124 12.3493 25.012 12.152C24.9054 11.9493 24.756 11.7947 24.564 11.688C24.372 11.5813 24.156 11.528 23.916 11.528C23.6707 11.528 23.452 11.5813 23.26 11.688C23.0734 11.7947 22.924 11.9493 22.812 12.152C22.7 12.3493 22.644 12.5867 22.644 12.864C22.644 13.136 22.7 13.3733 22.812 13.576C22.924 13.7787 23.0734 13.9333 23.26 14.04C23.452 14.1467 23.668 14.2 23.908 14.2ZM28.9523 15.056C28.5416 15.056 28.1709 14.9653 27.8403 14.784C27.5149 14.5973 27.2589 14.3413 27.0723 14.016C26.8856 13.6907 26.7923 13.3067 26.7923 12.864C26.7923 12.4213 26.8856 12.0373 27.0723 11.712C27.2589 11.3867 27.5149 11.1333 27.8403 10.952C28.1709 10.7707 28.5416 10.68 28.9523 10.68C29.3096 10.68 29.6296 10.76 29.9123 10.92C30.1949 11.0747 30.4189 11.312 30.5843 11.632C30.7496 11.952 30.8323 12.3627 30.8323 12.864C30.8323 13.36 30.7523 13.7707 30.5923 14.096C30.4323 14.416 30.2109 14.656 29.9283 14.816C29.6456 14.976 29.3203 15.056 28.9523 15.056ZM29.0723 14.2C29.3123 14.2 29.5256 14.1467 29.7123 14.04C29.9043 13.9333 30.0563 13.7787 30.1683 13.576C30.2856 13.3733 30.3443 13.136 30.3443 12.864C30.3443 12.5867 30.2856 12.3493 30.1683 12.152C30.0563 11.9493 29.9043 11.7947 29.7123 11.688C29.5256 11.5813 29.3123 11.528 29.0723 11.528C28.8323 11.528 28.6163 11.5813 28.4243 11.688C28.2376 11.7947 28.0856 11.9493 27.9683 12.152C27.8563 12.3493 27.8003 12.5867 27.8003 12.864C27.8003 13.136 27.8563 13.3733 27.9683 13.576C28.0856 13.7787 28.2376 13.9333 28.4243 14.04C28.6163 14.1467 28.8323 14.2 29.0723 14.2ZM30.3683 15V13.992L30.4083 12.856L30.3283 11.72V9.064H31.3203V15H30.3683ZM34.4445 15.056C34.0818 15.056 33.7618 14.9893 33.4845 14.856C33.2071 14.7173 32.9911 14.5093 32.8365 14.232C32.6818 13.9493 32.6045 13.5947 32.6045 13.168V10.728H33.6045V13.032C33.6045 13.416 33.6898 13.704 33.8605 13.896C34.0365 14.0827 34.2845 14.176 34.6045 14.176C34.8391 14.176 35.0418 14.128 35.2125 14.032C35.3885 13.936 35.5245 13.792 35.6205 13.6C35.7218 13.408 35.7725 13.1707 35.7725 12.888V10.728H36.7725V15H35.8205V13.848L35.9885 14.2C35.8445 14.4773 35.6338 14.6907 35.3565 14.84C35.0791 14.984 34.7751 15.056 34.4445 15.056ZM40.0418 15.056C39.5938 15.056 39.1938 14.9627 38.8418 14.776C38.4951 14.584 38.2231 14.3227 38.0258 13.992C37.8284 13.6613 37.7298 13.2853 37.7298 12.864C37.7298 12.4373 37.8284 12.0613 38.0258 11.736C38.2231 11.4053 38.4951 11.1467 38.8418 10.96C39.1938 10.7733 39.5938 10.68 40.0418 10.68C40.4578 10.68 40.8231 10.7653 41.1378 10.936C41.4578 11.1013 41.7004 11.3467 41.8658 11.672L41.0978 12.12C40.9698 11.9173 40.8124 11.768 40.6258 11.672C40.4444 11.576 40.2471 11.528 40.0338 11.528C39.7884 11.528 39.5671 11.5813 39.3698 11.688C39.1724 11.7947 39.0178 11.9493 38.9058 12.152C38.7938 12.3493 38.7378 12.5867 38.7378 12.864C38.7378 13.1413 38.7938 13.3813 38.9058 13.584C39.0178 13.7813 39.1724 13.9333 39.3698 14.04C39.5671 14.1467 39.7884 14.2 40.0338 14.2C40.2471 14.2 40.4444 14.152 40.6258 14.056C40.8124 13.96 40.9698 13.8107 41.0978 13.608L41.8658 14.056C41.7004 14.376 41.4578 14.624 41.1378 14.8C40.8231 14.9707 40.4578 15.056 40.0418 15.056ZM44.3929 15.056C43.9236 15.056 43.5609 14.936 43.3049 14.696C43.0489 14.4507 42.9209 14.0907 42.9209 13.616V9.784H43.9209V13.592C43.9209 13.7947 43.9716 13.952 44.0729 14.064C44.1796 14.176 44.3262 14.232 44.5129 14.232C44.7369 14.232 44.9236 14.1733 45.0729 14.056L45.3529 14.768C45.2356 14.864 45.0916 14.936 44.9209 14.984C44.7502 15.032 44.5742 15.056 44.3929 15.056ZM42.2169 11.56V10.76H45.0649V11.56H42.2169ZM47.4955 15.056C47.1382 15.056 46.7942 15.0107 46.4635 14.92C46.1382 14.824 45.8795 14.7093 45.6875 14.576L46.0715 13.816C46.2635 13.9387 46.4929 14.04 46.7595 14.12C47.0262 14.2 47.2929 14.24 47.5595 14.24C47.8742 14.24 48.1009 14.1973 48.2395 14.112C48.3835 14.0267 48.4555 13.912 48.4555 13.768C48.4555 13.6507 48.4075 13.5627 48.3115 13.504C48.2155 13.44 48.0902 13.392 47.9355 13.36C47.7809 13.328 47.6075 13.2987 47.4155 13.272C47.2289 13.2453 47.0395 13.2107 46.8475 13.168C46.6609 13.12 46.4902 13.0533 46.3355 12.968C46.1809 12.8773 46.0555 12.7573 45.9595 12.608C45.8635 12.4587 45.8155 12.2613 45.8155 12.016C45.8155 11.744 45.8929 11.5093 46.0475 11.312C46.2022 11.1093 46.4182 10.9547 46.6955 10.848C46.9782 10.736 47.3115 10.68 47.6955 10.68C47.9835 10.68 48.2742 10.712 48.5675 10.776C48.8609 10.84 49.1035 10.9307 49.2955 11.048L48.9115 11.808C48.7089 11.6853 48.5035 11.6027 48.2955 11.56C48.0929 11.512 47.8902 11.488 47.6875 11.488C47.3835 11.488 47.1569 11.5333 47.0075 11.624C46.8635 11.7147 46.7915 11.8293 46.7915 11.968C46.7915 12.096 46.8395 12.192 46.9355 12.256C47.0315 12.32 47.1569 12.3707 47.3115 12.408C47.4662 12.4453 47.6369 12.4773 47.8235 12.504C48.0155 12.5253 48.2049 12.56 48.3915 12.608C48.5782 12.656 48.7489 12.7227 48.9035 12.808C49.0635 12.888 49.1915 13.0027 49.2875 13.152C49.3835 13.3013 49.4315 13.496 49.4315 13.736C49.4315 14.0027 49.3515 14.2347 49.1915 14.432C49.0369 14.6293 48.8155 14.784 48.5275 14.896C48.2395 15.0027 47.8955 15.056 47.4955 15.056Z" fill="black"/>
</svg>
