<svg width="164" height="126" viewBox="0 0 164 126" fill="none" xmlns="http://www.w3.org/2000/svg">
<rect y="84" width="164" height="42" rx="10" fill="#0A8817"/>
<path d="M35.3316 110V100.2H39.3636C40.2316 100.2 40.9736 100.34 41.5896 100.62C42.215 100.9 42.6956 101.301 43.0316 101.824C43.3676 102.347 43.5356 102.967 43.5356 103.686C43.5356 104.405 43.3676 105.025 43.0316 105.548C42.6956 106.061 42.215 106.458 41.5896 106.738C40.9736 107.009 40.2316 107.144 39.3636 107.144H36.3396L37.1516 106.318V110H35.3316ZM41.7436 110L39.2656 106.444H41.2116L43.7036 110H41.7436ZM37.1516 106.514L36.3396 105.646H39.2796C40.0823 105.646 40.6843 105.473 41.0856 105.128C41.4963 104.783 41.7016 104.302 41.7016 103.686C41.7016 103.061 41.4963 102.58 41.0856 102.244C40.6843 101.908 40.0823 101.74 39.2796 101.74H36.3396L37.1516 100.844V106.514ZM48.9179 110.098C48.0872 110.098 47.3592 109.935 46.7339 109.608C46.1179 109.272 45.6372 108.815 45.2919 108.236C44.9559 107.657 44.7879 106.999 44.7879 106.262C44.7879 105.515 44.9512 104.857 45.2779 104.288C45.6139 103.709 46.0712 103.257 46.6499 102.93C47.2379 102.603 47.9052 102.44 48.6519 102.44C49.3799 102.44 50.0285 102.599 50.5979 102.916C51.1672 103.233 51.6152 103.681 51.9419 104.26C52.2685 104.839 52.4319 105.52 52.4319 106.304C52.4319 106.379 52.4272 106.463 52.4179 106.556C52.4179 106.649 52.4132 106.738 52.4039 106.822H46.1739V105.66H51.4799L50.7939 106.024C50.8032 105.595 50.7145 105.217 50.5279 104.89C50.3412 104.563 50.0845 104.307 49.7579 104.12C49.4405 103.933 49.0719 103.84 48.6519 103.84C48.2225 103.84 47.8445 103.933 47.5179 104.12C47.2005 104.307 46.9485 104.568 46.7619 104.904C46.5845 105.231 46.4959 105.618 46.4959 106.066V106.346C46.4959 106.794 46.5985 107.191 46.8039 107.536C47.0092 107.881 47.2985 108.147 47.6719 108.334C48.0452 108.521 48.4745 108.614 48.9599 108.614C49.3799 108.614 49.7579 108.549 50.0939 108.418C50.4299 108.287 50.7285 108.082 50.9899 107.802L51.9279 108.88C51.5919 109.272 51.1672 109.575 50.6539 109.79C50.1499 109.995 49.5712 110.098 48.9179 110.098ZM58.5138 110V108.488L58.4158 108.166V105.52C58.4158 105.007 58.2618 104.61 57.9538 104.33C57.6458 104.041 57.1791 103.896 56.5538 103.896C56.1338 103.896 55.7184 103.961 55.3078 104.092C54.9064 104.223 54.5658 104.405 54.2858 104.638L53.5998 103.364C54.0011 103.056 54.4771 102.827 55.0278 102.678C55.5878 102.519 56.1664 102.44 56.7638 102.44C57.8464 102.44 58.6818 102.701 59.2698 103.224C59.8671 103.737 60.1658 104.535 60.1658 105.618V110H58.5138ZM56.1618 110.098C55.6018 110.098 55.1118 110.005 54.6918 109.818C54.2718 109.622 53.9451 109.356 53.7118 109.02C53.4878 108.675 53.3758 108.287 53.3758 107.858C53.3758 107.438 53.4738 107.06 53.6698 106.724C53.8751 106.388 54.2064 106.122 54.6638 105.926C55.1211 105.73 55.7278 105.632 56.4838 105.632H58.6538V106.794H56.6098C56.0124 106.794 55.6111 106.892 55.4058 107.088C55.2004 107.275 55.0978 107.508 55.0978 107.788C55.0978 108.105 55.2238 108.357 55.4758 108.544C55.7278 108.731 56.0778 108.824 56.5258 108.824C56.9551 108.824 57.3378 108.726 57.6738 108.53C58.0191 108.334 58.2664 108.045 58.4158 107.662L58.7098 108.712C58.5418 109.151 58.2384 109.491 57.7998 109.734C57.3704 109.977 56.8244 110.098 56.1618 110.098ZM65.5893 110.098C64.8707 110.098 64.222 109.939 63.6433 109.622C63.074 109.295 62.626 108.847 62.2993 108.278C61.9727 107.709 61.8093 107.037 61.8093 106.262C61.8093 105.487 61.9727 104.815 62.2993 104.246C62.626 103.677 63.074 103.233 63.6433 102.916C64.222 102.599 64.8707 102.44 65.5893 102.44C66.2147 102.44 66.7747 102.58 67.2693 102.86C67.764 103.131 68.156 103.546 68.4453 104.106C68.7347 104.666 68.8793 105.385 68.8793 106.262C68.8793 107.13 68.7393 107.849 68.4593 108.418C68.1793 108.978 67.792 109.398 67.2973 109.678C66.8027 109.958 66.2333 110.098 65.5893 110.098ZM65.7993 108.6C66.2193 108.6 66.5927 108.507 66.9193 108.32C67.2553 108.133 67.5213 107.863 67.7173 107.508C67.9227 107.153 68.0253 106.738 68.0253 106.262C68.0253 105.777 67.9227 105.361 67.7173 105.016C67.5213 104.661 67.2553 104.391 66.9193 104.204C66.5927 104.017 66.2193 103.924 65.7993 103.924C65.3793 103.924 65.0013 104.017 64.6653 104.204C64.3387 104.391 64.0727 104.661 63.8673 105.016C63.6713 105.361 63.5733 105.777 63.5733 106.262C63.5733 106.738 63.6713 107.153 63.8673 107.508C64.0727 107.863 64.3387 108.133 64.6653 108.32C65.0013 108.507 65.3793 108.6 65.7993 108.6ZM68.0673 110V108.236L68.1373 106.248L67.9973 104.26V99.612H69.7333V110H68.0673ZM85.3418 102.44C85.9391 102.44 86.4665 102.557 86.9238 102.79C87.3905 103.023 87.7545 103.383 88.0158 103.868C88.2771 104.344 88.4078 104.96 88.4078 105.716V110H86.6578V105.94C86.6578 105.277 86.5131 104.783 86.2238 104.456C85.9345 104.129 85.5191 103.966 84.9778 103.966C84.5951 103.966 84.2545 104.05 83.9558 104.218C83.6665 104.386 83.4378 104.633 83.2698 104.96C83.1111 105.287 83.0318 105.702 83.0318 106.206V110H81.2818V105.94C81.2818 105.277 81.1371 104.783 80.8478 104.456C80.5585 104.129 80.1431 103.966 79.6018 103.966C79.2191 103.966 78.8785 104.05 78.5798 104.218C78.2905 104.386 78.0618 104.633 77.8938 104.96C77.7351 105.287 77.6558 105.702 77.6558 106.206V110H75.9058V102.524H77.5718V104.512L77.2778 103.924C77.5298 103.439 77.8938 103.07 78.3698 102.818C78.8551 102.566 79.4058 102.44 80.0218 102.44C80.7218 102.44 81.3285 102.613 81.8418 102.958C82.3645 103.303 82.7098 103.826 82.8778 104.526L82.1918 104.288C82.4345 103.728 82.8358 103.28 83.3958 102.944C83.9558 102.608 84.6045 102.44 85.3418 102.44ZM94.0178 110.098C93.2524 110.098 92.5711 109.935 91.9738 109.608C91.3764 109.272 90.9051 108.815 90.5598 108.236C90.2144 107.657 90.0418 106.999 90.0418 106.262C90.0418 105.515 90.2144 104.857 90.5598 104.288C90.9051 103.709 91.3764 103.257 91.9738 102.93C92.5711 102.603 93.2524 102.44 94.0178 102.44C94.7924 102.44 95.4784 102.603 96.0758 102.93C96.6824 103.257 97.1538 103.705 97.4898 104.274C97.8351 104.843 98.0078 105.506 98.0078 106.262C98.0078 106.999 97.8351 107.657 97.4898 108.236C97.1538 108.815 96.6824 109.272 96.0758 109.608C95.4784 109.935 94.7924 110.098 94.0178 110.098ZM94.0178 108.6C94.4471 108.6 94.8298 108.507 95.1658 108.32C95.5018 108.133 95.7631 107.863 95.9498 107.508C96.1458 107.153 96.2438 106.738 96.2438 106.262C96.2438 105.777 96.1458 105.361 95.9498 105.016C95.7631 104.661 95.5018 104.391 95.1658 104.204C94.8298 104.017 94.4518 103.924 94.0318 103.924C93.6024 103.924 93.2198 104.017 92.8838 104.204C92.5571 104.391 92.2958 104.661 92.0998 105.016C91.9038 105.361 91.8058 105.777 91.8058 106.262C91.8058 106.738 91.9038 107.153 92.0998 107.508C92.2958 107.863 92.5571 108.133 92.8838 108.32C93.2198 108.507 93.5978 108.6 94.0178 108.6ZM99.6812 110V102.524H101.347V104.582L101.151 103.98C101.375 103.476 101.725 103.093 102.201 102.832C102.687 102.571 103.289 102.44 104.007 102.44V104.106C103.933 104.087 103.863 104.078 103.797 104.078C103.732 104.069 103.667 104.064 103.601 104.064C102.939 104.064 102.411 104.26 102.019 104.652C101.627 105.035 101.431 105.609 101.431 106.374V110H99.6812ZM108.937 110.098C108.107 110.098 107.379 109.935 106.753 109.608C106.137 109.272 105.657 108.815 105.311 108.236C104.975 107.657 104.807 106.999 104.807 106.262C104.807 105.515 104.971 104.857 105.297 104.288C105.633 103.709 106.091 103.257 106.669 102.93C107.257 102.603 107.925 102.44 108.671 102.44C109.399 102.44 110.048 102.599 110.617 102.916C111.187 103.233 111.635 103.681 111.961 104.26C112.288 104.839 112.451 105.52 112.451 106.304C112.451 106.379 112.447 106.463 112.437 106.556C112.437 106.649 112.433 106.738 112.423 106.822H106.193V105.66H111.499L110.813 106.024C110.823 105.595 110.734 105.217 110.547 104.89C110.361 104.563 110.104 104.307 109.777 104.12C109.46 103.933 109.091 103.84 108.671 103.84C108.242 103.84 107.864 103.933 107.537 104.12C107.22 104.307 106.968 104.568 106.781 104.904C106.604 105.231 106.515 105.618 106.515 106.066V106.346C106.515 106.794 106.618 107.191 106.823 107.536C107.029 107.881 107.318 108.147 107.691 108.334C108.065 108.521 108.494 108.614 108.979 108.614C109.399 108.614 109.777 108.549 110.113 108.418C110.449 108.287 110.748 108.082 111.009 107.802L111.947 108.88C111.611 109.272 111.187 109.575 110.673 109.79C110.169 109.995 109.591 110.098 108.937 110.098Z" fill="#FCFCFC"/>
<path d="M122 101L126.948 105L122 109" stroke="#FCFCFC" stroke-width="2" stroke-linecap="round" stroke-linejoin="round"/>
<rect y="42" width="164" height="42" rx="10" fill="#0A8817"/>
<path d="M35.4192 68V58.2H39.4512C40.3192 58.2 41.0612 58.34 41.6772 58.62C42.3026 58.9 42.7832 59.3013 43.1192 59.824C43.4552 60.3467 43.6232 60.9673 43.6232 61.686C43.6232 62.4047 43.4552 63.0253 43.1192 63.548C42.7832 64.0613 42.3026 64.458 41.6772 64.738C41.0612 65.0087 40.3192 65.144 39.4512 65.144H36.4272L37.2392 64.318V68H35.4192ZM41.8312 68L39.3532 64.444H41.2992L43.7912 68H41.8312ZM37.2392 64.514L36.4272 63.646H39.3672C40.1699 63.646 40.7719 63.4733 41.1732 63.128C41.5839 62.7827 41.7892 62.302 41.7892 61.686C41.7892 61.0607 41.5839 60.58 41.1732 60.244C40.7719 59.908 40.1699 59.74 39.3672 59.74H36.4272L37.2392 58.844V64.514ZM49.0055 68.098C48.1748 68.098 47.4468 67.9347 46.8215 67.608C46.2055 67.272 45.7248 66.8147 45.3795 66.236C45.0435 65.6573 44.8755 64.9993 44.8755 64.262C44.8755 63.5153 45.0388 62.8573 45.3655 62.288C45.7015 61.7093 46.1588 61.2567 46.7375 60.93C47.3255 60.6033 47.9928 60.44 48.7395 60.44C49.4675 60.44 50.1161 60.5987 50.6855 60.916C51.2548 61.2333 51.7028 61.6813 52.0295 62.26C52.3561 62.8387 52.5195 63.52 52.5195 64.304C52.5195 64.3787 52.5148 64.4627 52.5055 64.556C52.5055 64.6493 52.5008 64.738 52.4915 64.822H46.2615V63.66H51.5675L50.8815 64.024C50.8908 63.5947 50.8021 63.2167 50.6155 62.89C50.4288 62.5633 50.1721 62.3067 49.8455 62.12C49.5281 61.9333 49.1595 61.84 48.7395 61.84C48.3101 61.84 47.9321 61.9333 47.6055 62.12C47.2881 62.3067 47.0361 62.568 46.8495 62.904C46.6721 63.2307 46.5835 63.618 46.5835 64.066V64.346C46.5835 64.794 46.6861 65.1907 46.8915 65.536C47.0968 65.8813 47.3861 66.1473 47.7595 66.334C48.1328 66.5207 48.5621 66.614 49.0475 66.614C49.4675 66.614 49.8455 66.5487 50.1815 66.418C50.5175 66.2873 50.8161 66.082 51.0775 65.802L52.0155 66.88C51.6795 67.272 51.2548 67.5753 50.7415 67.79C50.2375 67.9953 49.6588 68.098 49.0055 68.098ZM58.6014 68V66.488L58.5034 66.166V63.52C58.5034 63.0067 58.3494 62.61 58.0414 62.33C57.7334 62.0407 57.2667 61.896 56.6414 61.896C56.2214 61.896 55.806 61.9613 55.3954 62.092C54.994 62.2227 54.6534 62.4047 54.3734 62.638L53.6874 61.364C54.0887 61.056 54.5647 60.8273 55.1154 60.678C55.6754 60.5193 56.254 60.44 56.8514 60.44C57.934 60.44 58.7694 60.7013 59.3574 61.224C59.9547 61.7373 60.2534 62.5353 60.2534 63.618V68H58.6014ZM56.2494 68.098C55.6894 68.098 55.1994 68.0047 54.7794 67.818C54.3594 67.622 54.0327 67.356 53.7994 67.02C53.5754 66.6747 53.4634 66.2873 53.4634 65.858C53.4634 65.438 53.5614 65.06 53.7574 64.724C53.9627 64.388 54.294 64.122 54.7514 63.926C55.2087 63.73 55.8154 63.632 56.5714 63.632H58.7414V64.794H56.6974C56.1 64.794 55.6987 64.892 55.4934 65.088C55.288 65.2747 55.1854 65.508 55.1854 65.788C55.1854 66.1053 55.3114 66.3573 55.5634 66.544C55.8154 66.7307 56.1654 66.824 56.6134 66.824C57.0427 66.824 57.4254 66.726 57.7614 66.53C58.1067 66.334 58.354 66.0447 58.5034 65.662L58.7974 66.712C58.6294 67.1507 58.326 67.4913 57.8874 67.734C57.458 67.9767 56.912 68.098 56.2494 68.098ZM65.677 68.098C64.9583 68.098 64.3096 67.9393 63.731 67.622C63.1616 67.2953 62.7136 66.8473 62.387 66.278C62.0603 65.7087 61.897 65.0367 61.897 64.262C61.897 63.4873 62.0603 62.8153 62.387 62.246C62.7136 61.6767 63.1616 61.2333 63.731 60.916C64.3096 60.5987 64.9583 60.44 65.677 60.44C66.3023 60.44 66.8623 60.58 67.357 60.86C67.8516 61.1307 68.2436 61.546 68.533 62.106C68.8223 62.666 68.967 63.3847 68.967 64.262C68.967 65.13 68.827 65.8487 68.547 66.418C68.267 66.978 67.8796 67.398 67.385 67.678C66.8903 67.958 66.321 68.098 65.677 68.098ZM65.887 66.6C66.307 66.6 66.6803 66.5067 67.007 66.32C67.343 66.1333 67.609 65.8627 67.805 65.508C68.0103 65.1533 68.113 64.738 68.113 64.262C68.113 63.7767 68.0103 63.3613 67.805 63.016C67.609 62.6613 67.343 62.3907 67.007 62.204C66.6803 62.0173 66.307 61.924 65.887 61.924C65.467 61.924 65.089 62.0173 64.753 62.204C64.4263 62.3907 64.1603 62.6613 63.955 63.016C63.759 63.3613 63.661 63.7767 63.661 64.262C63.661 64.738 63.759 65.1533 63.955 65.508C64.1603 65.8627 64.4263 66.1333 64.753 66.32C65.089 66.5067 65.467 66.6 65.887 66.6ZM68.155 68V66.236L68.225 64.248L68.085 62.26V57.612H69.821V68H68.155ZM85.4294 60.44C86.0268 60.44 86.5541 60.5567 87.0114 60.79C87.4781 61.0233 87.8421 61.3827 88.1034 61.868C88.3648 62.344 88.4954 62.96 88.4954 63.716V68H86.7454V63.94C86.7454 63.2773 86.6008 62.7827 86.3114 62.456C86.0221 62.1293 85.6068 61.966 85.0654 61.966C84.6828 61.966 84.3421 62.05 84.0434 62.218C83.7541 62.386 83.5254 62.6333 83.3574 62.96C83.1988 63.2867 83.1194 63.702 83.1194 64.206V68H81.3694V63.94C81.3694 63.2773 81.2248 62.7827 80.9354 62.456C80.6461 62.1293 80.2308 61.966 79.6894 61.966C79.3068 61.966 78.9661 62.05 78.6674 62.218C78.3781 62.386 78.1494 62.6333 77.9814 62.96C77.8228 63.2867 77.7434 63.702 77.7434 64.206V68H75.9934V60.524H77.6594V62.512L77.3654 61.924C77.6174 61.4387 77.9814 61.07 78.4574 60.818C78.9428 60.566 79.4934 60.44 80.1094 60.44C80.8094 60.44 81.4161 60.6127 81.9294 60.958C82.4521 61.3033 82.7974 61.826 82.9654 62.526L82.2794 62.288C82.5221 61.728 82.9234 61.28 83.4834 60.944C84.0434 60.608 84.6921 60.44 85.4294 60.44ZM94.1054 68.098C93.34 68.098 92.6587 67.9347 92.0614 67.608C91.464 67.272 90.9927 66.8147 90.6474 66.236C90.302 65.6573 90.1294 64.9993 90.1294 64.262C90.1294 63.5153 90.302 62.8573 90.6474 62.288C90.9927 61.7093 91.464 61.2567 92.0614 60.93C92.6587 60.6033 93.34 60.44 94.1054 60.44C94.88 60.44 95.566 60.6033 96.1634 60.93C96.77 61.2567 97.2414 61.7047 97.5774 62.274C97.9227 62.8433 98.0954 63.506 98.0954 64.262C98.0954 64.9993 97.9227 65.6573 97.5774 66.236C97.2414 66.8147 96.77 67.272 96.1634 67.608C95.566 67.9347 94.88 68.098 94.1054 68.098ZM94.1054 66.6C94.5347 66.6 94.9174 66.5067 95.2534 66.32C95.5894 66.1333 95.8507 65.8627 96.0374 65.508C96.2334 65.1533 96.3314 64.738 96.3314 64.262C96.3314 63.7767 96.2334 63.3613 96.0374 63.016C95.8507 62.6613 95.5894 62.3907 95.2534 62.204C94.9174 62.0173 94.5394 61.924 94.1194 61.924C93.69 61.924 93.3074 62.0173 92.9714 62.204C92.6447 62.3907 92.3834 62.6613 92.1874 63.016C91.9914 63.3613 91.8934 63.7767 91.8934 64.262C91.8934 64.738 91.9914 65.1533 92.1874 65.508C92.3834 65.8627 92.6447 66.1333 92.9714 66.32C93.3074 66.5067 93.6854 66.6 94.1054 66.6ZM99.7688 68V60.524H101.435V62.582L101.239 61.98C101.463 61.476 101.813 61.0933 102.289 60.832C102.774 60.5707 103.376 60.44 104.095 60.44V62.106C104.02 62.0873 103.95 62.078 103.885 62.078C103.819 62.0687 103.754 62.064 103.689 62.064C103.026 62.064 102.499 62.26 102.107 62.652C101.715 63.0347 101.519 63.6087 101.519 64.374V68H99.7688ZM109.025 68.098C108.194 68.098 107.466 67.9347 106.841 67.608C106.225 67.272 105.744 66.8147 105.399 66.236C105.063 65.6573 104.895 64.9993 104.895 64.262C104.895 63.5153 105.058 62.8573 105.385 62.288C105.721 61.7093 106.178 61.2567 106.757 60.93C107.345 60.6033 108.012 60.44 108.759 60.44C109.487 60.44 110.136 60.5987 110.705 60.916C111.274 61.2333 111.722 61.6813 112.049 62.26C112.376 62.8387 112.539 63.52 112.539 64.304C112.539 64.3787 112.534 64.4627 112.525 64.556C112.525 64.6493 112.52 64.738 112.511 64.822H106.281V63.66H111.587L110.901 64.024C110.91 63.5947 110.822 63.2167 110.635 62.89C110.448 62.5633 110.192 62.3067 109.865 62.12C109.548 61.9333 109.179 61.84 108.759 61.84C108.33 61.84 107.952 61.9333 107.625 62.12C107.308 62.3067 107.056 62.568 106.869 62.904C106.692 63.2307 106.603 63.618 106.603 64.066V64.346C106.603 64.794 106.706 65.1907 106.911 65.536C107.116 65.8813 107.406 66.1473 107.779 66.334C108.152 66.5207 108.582 66.614 109.067 66.614C109.487 66.614 109.865 66.5487 110.201 66.418C110.537 66.2873 110.836 66.082 111.097 65.802L112.035 66.88C111.699 67.272 111.274 67.5753 110.761 67.79C110.257 67.9953 109.678 68.098 109.025 68.098Z" fill="black"/>
<path d="M122 59L126.948 63L122 67" stroke="black" stroke-width="2" stroke-linecap="round" stroke-linejoin="round"/>
<rect width="164" height="42" rx="10" fill="#F8D24E"/>
<path d="M35.4192 26V16.2H39.4512C40.3192 16.2 41.0612 16.34 41.6772 16.62C42.3026 16.9 42.7832 17.3013 43.1192 17.824C43.4552 18.3467 43.6232 18.9673 43.6232 19.686C43.6232 20.4047 43.4552 21.0253 43.1192 21.548C42.7832 22.0613 42.3026 22.458 41.6772 22.738C41.0612 23.0087 40.3192 23.144 39.4512 23.144H36.4272L37.2392 22.318V26H35.4192ZM41.8312 26L39.3532 22.444H41.2992L43.7912 26H41.8312ZM37.2392 22.514L36.4272 21.646H39.3672C40.1699 21.646 40.7719 21.4733 41.1732 21.128C41.5839 20.7827 41.7892 20.302 41.7892 19.686C41.7892 19.0607 41.5839 18.58 41.1732 18.244C40.7719 17.908 40.1699 17.74 39.3672 17.74H36.4272L37.2392 16.844V22.514ZM49.0055 26.098C48.1748 26.098 47.4468 25.9347 46.8215 25.608C46.2055 25.272 45.7248 24.8147 45.3795 24.236C45.0435 23.6573 44.8755 22.9993 44.8755 22.262C44.8755 21.5153 45.0388 20.8573 45.3655 20.288C45.7015 19.7093 46.1588 19.2567 46.7375 18.93C47.3255 18.6033 47.9928 18.44 48.7395 18.44C49.4675 18.44 50.1161 18.5987 50.6855 18.916C51.2548 19.2333 51.7028 19.6813 52.0295 20.26C52.3561 20.8387 52.5195 21.52 52.5195 22.304C52.5195 22.3787 52.5148 22.4627 52.5055 22.556C52.5055 22.6493 52.5008 22.738 52.4915 22.822H46.2615V21.66H51.5675L50.8815 22.024C50.8908 21.5947 50.8021 21.2167 50.6155 20.89C50.4288 20.5633 50.1721 20.3067 49.8455 20.12C49.5281 19.9333 49.1595 19.84 48.7395 19.84C48.3101 19.84 47.9321 19.9333 47.6055 20.12C47.2881 20.3067 47.0361 20.568 46.8495 20.904C46.6721 21.2307 46.5835 21.618 46.5835 22.066V22.346C46.5835 22.794 46.6861 23.1907 46.8915 23.536C47.0968 23.8813 47.3861 24.1473 47.7595 24.334C48.1328 24.5207 48.5621 24.614 49.0475 24.614C49.4675 24.614 49.8455 24.5487 50.1815 24.418C50.5175 24.2873 50.8161 24.082 51.0775 23.802L52.0155 24.88C51.6795 25.272 51.2548 25.5753 50.7415 25.79C50.2375 25.9953 49.6588 26.098 49.0055 26.098ZM58.6014 26V24.488L58.5034 24.166V21.52C58.5034 21.0067 58.3494 20.61 58.0414 20.33C57.7334 20.0407 57.2667 19.896 56.6414 19.896C56.2214 19.896 55.806 19.9613 55.3954 20.092C54.994 20.2227 54.6534 20.4047 54.3734 20.638L53.6874 19.364C54.0887 19.056 54.5647 18.8273 55.1154 18.678C55.6754 18.5193 56.254 18.44 56.8514 18.44C57.934 18.44 58.7694 18.7013 59.3574 19.224C59.9547 19.7373 60.2534 20.5353 60.2534 21.618V26H58.6014ZM56.2494 26.098C55.6894 26.098 55.1994 26.0047 54.7794 25.818C54.3594 25.622 54.0327 25.356 53.7994 25.02C53.5754 24.6747 53.4634 24.2873 53.4634 23.858C53.4634 23.438 53.5614 23.06 53.7574 22.724C53.9627 22.388 54.294 22.122 54.7514 21.926C55.2087 21.73 55.8154 21.632 56.5714 21.632H58.7414V22.794H56.6974C56.1 22.794 55.6987 22.892 55.4934 23.088C55.288 23.2747 55.1854 23.508 55.1854 23.788C55.1854 24.1053 55.3114 24.3573 55.5634 24.544C55.8154 24.7307 56.1654 24.824 56.6134 24.824C57.0427 24.824 57.4254 24.726 57.7614 24.53C58.1067 24.334 58.354 24.0447 58.5034 23.662L58.7974 24.712C58.6294 25.1507 58.326 25.4913 57.8874 25.734C57.458 25.9767 56.912 26.098 56.2494 26.098ZM65.677 26.098C64.9583 26.098 64.3096 25.9393 63.731 25.622C63.1616 25.2953 62.7136 24.8473 62.387 24.278C62.0603 23.7087 61.897 23.0367 61.897 22.262C61.897 21.4873 62.0603 20.8153 62.387 20.246C62.7136 19.6767 63.1616 19.2333 63.731 18.916C64.3096 18.5987 64.9583 18.44 65.677 18.44C66.3023 18.44 66.8623 18.58 67.357 18.86C67.8516 19.1307 68.2436 19.546 68.533 20.106C68.8223 20.666 68.967 21.3847 68.967 22.262C68.967 23.13 68.827 23.8487 68.547 24.418C68.267 24.978 67.8796 25.398 67.385 25.678C66.8903 25.958 66.321 26.098 65.677 26.098ZM65.887 24.6C66.307 24.6 66.6803 24.5067 67.007 24.32C67.343 24.1333 67.609 23.8627 67.805 23.508C68.0103 23.1533 68.113 22.738 68.113 22.262C68.113 21.7767 68.0103 21.3613 67.805 21.016C67.609 20.6613 67.343 20.3907 67.007 20.204C66.6803 20.0173 66.307 19.924 65.887 19.924C65.467 19.924 65.089 20.0173 64.753 20.204C64.4263 20.3907 64.1603 20.6613 63.955 21.016C63.759 21.3613 63.661 21.7767 63.661 22.262C63.661 22.738 63.759 23.1533 63.955 23.508C64.1603 23.8627 64.4263 24.1333 64.753 24.32C65.089 24.5067 65.467 24.6 65.887 24.6ZM68.155 26V24.236L68.225 22.248L68.085 20.26V15.612H69.821V26H68.155ZM85.4294 18.44C86.0268 18.44 86.5541 18.5567 87.0114 18.79C87.4781 19.0233 87.8421 19.3827 88.1034 19.868C88.3648 20.344 88.4954 20.96 88.4954 21.716V26H86.7454V21.94C86.7454 21.2773 86.6008 20.7827 86.3114 20.456C86.0221 20.1293 85.6068 19.966 85.0654 19.966C84.6828 19.966 84.3421 20.05 84.0434 20.218C83.7541 20.386 83.5254 20.6333 83.3574 20.96C83.1988 21.2867 83.1194 21.702 83.1194 22.206V26H81.3694V21.94C81.3694 21.2773 81.2248 20.7827 80.9354 20.456C80.6461 20.1293 80.2308 19.966 79.6894 19.966C79.3068 19.966 78.9661 20.05 78.6674 20.218C78.3781 20.386 78.1494 20.6333 77.9814 20.96C77.8228 21.2867 77.7434 21.702 77.7434 22.206V26H75.9934V18.524H77.6594V20.512L77.3654 19.924C77.6174 19.4387 77.9814 19.07 78.4574 18.818C78.9428 18.566 79.4934 18.44 80.1094 18.44C80.8094 18.44 81.4161 18.6127 81.9294 18.958C82.4521 19.3033 82.7974 19.826 82.9654 20.526L82.2794 20.288C82.5221 19.728 82.9234 19.28 83.4834 18.944C84.0434 18.608 84.6921 18.44 85.4294 18.44ZM94.1054 26.098C93.34 26.098 92.6587 25.9347 92.0614 25.608C91.464 25.272 90.9927 24.8147 90.6474 24.236C90.302 23.6573 90.1294 22.9993 90.1294 22.262C90.1294 21.5153 90.302 20.8573 90.6474 20.288C90.9927 19.7093 91.464 19.2567 92.0614 18.93C92.6587 18.6033 93.34 18.44 94.1054 18.44C94.88 18.44 95.566 18.6033 96.1634 18.93C96.77 19.2567 97.2414 19.7047 97.5774 20.274C97.9227 20.8433 98.0954 21.506 98.0954 22.262C98.0954 22.9993 97.9227 23.6573 97.5774 24.236C97.2414 24.8147 96.77 25.272 96.1634 25.608C95.566 25.9347 94.88 26.098 94.1054 26.098ZM94.1054 24.6C94.5347 24.6 94.9174 24.5067 95.2534 24.32C95.5894 24.1333 95.8507 23.8627 96.0374 23.508C96.2334 23.1533 96.3314 22.738 96.3314 22.262C96.3314 21.7767 96.2334 21.3613 96.0374 21.016C95.8507 20.6613 95.5894 20.3907 95.2534 20.204C94.9174 20.0173 94.5394 19.924 94.1194 19.924C93.69 19.924 93.3074 20.0173 92.9714 20.204C92.6447 20.3907 92.3834 20.6613 92.1874 21.016C91.9914 21.3613 91.8934 21.7767 91.8934 22.262C91.8934 22.738 91.9914 23.1533 92.1874 23.508C92.3834 23.8627 92.6447 24.1333 92.9714 24.32C93.3074 24.5067 93.6854 24.6 94.1054 24.6ZM99.7688 26V18.524H101.435V20.582L101.239 19.98C101.463 19.476 101.813 19.0933 102.289 18.832C102.774 18.5707 103.376 18.44 104.095 18.44V20.106C104.02 20.0873 103.95 20.078 103.885 20.078C103.819 20.0687 103.754 20.064 103.689 20.064C103.026 20.064 102.499 20.26 102.107 20.652C101.715 21.0347 101.519 21.6087 101.519 22.374V26H99.7688ZM109.025 26.098C108.194 26.098 107.466 25.9347 106.841 25.608C106.225 25.272 105.744 24.8147 105.399 24.236C105.063 23.6573 104.895 22.9993 104.895 22.262C104.895 21.5153 105.058 20.8573 105.385 20.288C105.721 19.7093 106.178 19.2567 106.757 18.93C107.345 18.6033 108.012 18.44 108.759 18.44C109.487 18.44 110.136 18.5987 110.705 18.916C111.274 19.2333 111.722 19.6813 112.049 20.26C112.376 20.8387 112.539 21.52 112.539 22.304C112.539 22.3787 112.534 22.4627 112.525 22.556C112.525 22.6493 112.52 22.738 112.511 22.822H106.281V21.66H111.587L110.901 22.024C110.91 21.5947 110.822 21.2167 110.635 20.89C110.448 20.5633 110.192 20.3067 109.865 20.12C109.548 19.9333 109.179 19.84 108.759 19.84C108.33 19.84 107.952 19.9333 107.625 20.12C107.308 20.3067 107.056 20.568 106.869 20.904C106.692 21.2307 106.603 21.618 106.603 22.066V22.346C106.603 22.794 106.706 23.1907 106.911 23.536C107.116 23.8813 107.406 24.1473 107.779 24.334C108.152 24.5207 108.582 24.614 109.067 24.614C109.487 24.614 109.865 24.5487 110.201 24.418C110.537 24.2873 110.836 24.082 111.097 23.802L112.035 24.88C111.699 25.272 111.274 25.5753 110.761 25.79C110.257 25.9953 109.678 26.098 109.025 26.098Z" fill="black"/>
<path d="M122 17L126.948 21L122 25" stroke="black" stroke-width="2" stroke-linecap="round" stroke-linejoin="round"/>
</svg>
